%TF.GenerationSoftware,KiCad,Pcbnew,(6.0.7)*%
%TF.CreationDate,2022-09-22T15:33:20-05:00*%
%TF.ProjectId,2611,32363131-2e6b-4696-9361-645f70636258,rev?*%
%TF.SameCoordinates,Original*%
%TF.FileFunction,Copper,L2,Bot*%
%TF.FilePolarity,Positive*%
%FSLAX46Y46*%
G04 Gerber Fmt 4.6, Leading zero omitted, Abs format (unit mm)*
G04 Created by KiCad (PCBNEW (6.0.7)) date 2022-09-22 15:33:20*
%MOMM*%
%LPD*%
G01*
G04 APERTURE LIST*
G04 Aperture macros list*
%AMRoundRect*
0 Rectangle with rounded corners*
0 $1 Rounding radius*
0 $2 $3 $4 $5 $6 $7 $8 $9 X,Y pos of 4 corners*
0 Add a 4 corners polygon primitive as box body*
4,1,4,$2,$3,$4,$5,$6,$7,$8,$9,$2,$3,0*
0 Add four circle primitives for the rounded corners*
1,1,$1+$1,$2,$3*
1,1,$1+$1,$4,$5*
1,1,$1+$1,$6,$7*
1,1,$1+$1,$8,$9*
0 Add four rect primitives between the rounded corners*
20,1,$1+$1,$2,$3,$4,$5,0*
20,1,$1+$1,$4,$5,$6,$7,0*
20,1,$1+$1,$6,$7,$8,$9,0*
20,1,$1+$1,$8,$9,$2,$3,0*%
G04 Aperture macros list end*
%TA.AperFunction,ComponentPad*%
%ADD10C,1.600000*%
%TD*%
%TA.AperFunction,ComponentPad*%
%ADD11O,1.600000X1.600000*%
%TD*%
%TA.AperFunction,ComponentPad*%
%ADD12R,1.600000X1.600000*%
%TD*%
%TA.AperFunction,ComponentPad*%
%ADD13RoundRect,0.249999X-1.550001X0.790001X-1.550001X-0.790001X1.550001X-0.790001X1.550001X0.790001X0*%
%TD*%
%TA.AperFunction,ComponentPad*%
%ADD14O,3.600000X2.080000*%
%TD*%
%TA.AperFunction,ComponentPad*%
%ADD15R,1.200000X1.200000*%
%TD*%
%TA.AperFunction,ComponentPad*%
%ADD16C,1.200000*%
%TD*%
%TA.AperFunction,ComponentPad*%
%ADD17R,2.000000X1.905000*%
%TD*%
%TA.AperFunction,ComponentPad*%
%ADD18O,2.000000X1.905000*%
%TD*%
%TA.AperFunction,ComponentPad*%
%ADD19R,2.000000X2.000000*%
%TD*%
%TA.AperFunction,ComponentPad*%
%ADD20C,2.000000*%
%TD*%
%TA.AperFunction,ComponentPad*%
%ADD21RoundRect,0.250000X-1.550000X0.750000X-1.550000X-0.750000X1.550000X-0.750000X1.550000X0.750000X0*%
%TD*%
%TA.AperFunction,ComponentPad*%
%ADD22O,3.600000X2.000000*%
%TD*%
%TA.AperFunction,ComponentPad*%
%ADD23RoundRect,0.250000X1.550000X-0.750000X1.550000X0.750000X-1.550000X0.750000X-1.550000X-0.750000X0*%
%TD*%
%TA.AperFunction,ComponentPad*%
%ADD24R,2.800000X2.800000*%
%TD*%
%TA.AperFunction,ComponentPad*%
%ADD25C,2.800000*%
%TD*%
%TA.AperFunction,Conductor*%
%ADD26C,0.800000*%
%TD*%
G04 APERTURE END LIST*
D10*
%TO.P,R1,1*%
%TO.N,Net-(J4-Pad4)*%
X139700000Y-73660000D03*
D11*
%TO.P,R1,2*%
%TO.N,Net-(J2-Pad1)*%
X139700000Y-86360000D03*
%TD*%
D10*
%TO.P,R2,1*%
%TO.N,Net-(J3-Pad2)*%
X147320000Y-120650000D03*
D11*
%TO.P,R2,2*%
%TO.N,Net-(C6-Pad2)*%
X147320000Y-133350000D03*
%TD*%
D12*
%TO.P,C7,1*%
%TO.N,Net-(J4-Pad4)*%
X169545000Y-76835000D03*
D10*
%TO.P,C7,2*%
%TO.N,Net-(C1-Pad2)*%
X169545000Y-79335000D03*
%TD*%
D13*
%TO.P,J3,1,Pin_1*%
%TO.N,Net-(C1-Pad2)*%
X133317500Y-114300000D03*
D14*
%TO.P,J3,2,Pin_2*%
%TO.N,Net-(J3-Pad2)*%
X133317500Y-119380000D03*
%TD*%
D15*
%TO.P,C6,1*%
%TO.N,Net-(C1-Pad2)*%
X162560000Y-137160000D03*
D16*
%TO.P,C6,2*%
%TO.N,Net-(C6-Pad2)*%
X162560000Y-139160000D03*
%TD*%
D17*
%TO.P,U1,1,ADJ*%
%TO.N,Net-(J2-Pad1)*%
X129540000Y-78740000D03*
D18*
%TO.P,U1,2,VO*%
%TO.N,Net-(J4-Pad4)*%
X129540000Y-76200000D03*
%TO.P,U1,3,VI*%
%TO.N,Net-(C1-Pad1)*%
X129540000Y-73660000D03*
%TD*%
D15*
%TO.P,C3,1*%
%TO.N,Net-(C1-Pad1)*%
X109220000Y-78740000D03*
D16*
%TO.P,C3,2*%
%TO.N,Net-(C1-Pad2)*%
X109220000Y-80740000D03*
%TD*%
D19*
%TO.P,C2,1*%
%TO.N,Net-(C1-Pad2)*%
X96520000Y-132160000D03*
D20*
%TO.P,C2,2*%
%TO.N,Net-(C2-Pad2)*%
X96520000Y-137160000D03*
%TD*%
D21*
%TO.P,J1,1,Pin_1*%
%TO.N,Net-(D1-Pad2)*%
X92042500Y-104855000D03*
D22*
%TO.P,J1,2,Pin_2*%
%TO.N,Net-(C1-Pad2)*%
X92042500Y-109855000D03*
%TO.P,J1,3,Pin_3*%
%TO.N,Net-(D1-Pad3)*%
X92042500Y-114855000D03*
%TD*%
D23*
%TO.P,J4,1,Pin_1*%
%TO.N,Net-(C6-Pad2)*%
X168942500Y-114815000D03*
D22*
%TO.P,J4,2,Pin_2*%
%TO.N,Net-(C1-Pad2)*%
X168942500Y-109815000D03*
%TO.P,J4,3,Pin_3*%
X168942500Y-104815000D03*
%TO.P,J4,4,Pin_4*%
%TO.N,Net-(J4-Pad4)*%
X168942500Y-99815000D03*
%TD*%
D15*
%TO.P,C4,1*%
%TO.N,Net-(C1-Pad2)*%
X109220000Y-134620000D03*
D16*
%TO.P,C4,2*%
%TO.N,Net-(C2-Pad2)*%
X109220000Y-136620000D03*
%TD*%
D17*
%TO.P,U2,1,ADJ*%
%TO.N,Net-(J3-Pad2)*%
X129540000Y-134620000D03*
D18*
%TO.P,U2,2,VI*%
%TO.N,Net-(C2-Pad2)*%
X129540000Y-137160000D03*
%TO.P,U2,3,VO*%
%TO.N,Net-(C6-Pad2)*%
X129540000Y-139700000D03*
%TD*%
D19*
%TO.P,C1,1*%
%TO.N,Net-(C1-Pad1)*%
X96520000Y-78740000D03*
D20*
%TO.P,C1,2*%
%TO.N,Net-(C1-Pad2)*%
X96520000Y-83740000D03*
%TD*%
D12*
%TO.P,C8,1*%
%TO.N,Net-(C1-Pad2)*%
X173355000Y-128992621D03*
D10*
%TO.P,C8,2*%
%TO.N,Net-(C6-Pad2)*%
X173355000Y-131492621D03*
%TD*%
D24*
%TO.P,D1,1,+*%
%TO.N,Net-(C1-Pad1)*%
X106680000Y-102235000D03*
D25*
%TO.P,D1,2*%
%TO.N,Net-(D1-Pad2)*%
X106680000Y-107315000D03*
%TO.P,D1,3*%
%TO.N,Net-(D1-Pad3)*%
X106680000Y-112395000D03*
%TO.P,D1,4,-*%
%TO.N,Net-(C2-Pad2)*%
X106680000Y-117475000D03*
%TD*%
D13*
%TO.P,J2,1,Pin_1*%
%TO.N,Net-(J2-Pad1)*%
X133317500Y-96520000D03*
D14*
%TO.P,J2,2,Pin_2*%
%TO.N,Net-(C1-Pad2)*%
X133317500Y-101600000D03*
%TD*%
D15*
%TO.P,C5,1*%
%TO.N,Net-(J4-Pad4)*%
X157480000Y-78740000D03*
D16*
%TO.P,C5,2*%
%TO.N,Net-(C1-Pad2)*%
X157480000Y-80740000D03*
%TD*%
D26*
%TO.N,Net-(C1-Pad1)*%
X100330000Y-90805000D02*
X87630000Y-90805000D01*
X106680000Y-97155000D02*
X100330000Y-90805000D01*
X109220000Y-78740000D02*
X116840000Y-78740000D01*
X85090000Y-88265000D02*
X85090000Y-81280000D01*
X116840000Y-78740000D02*
X121920000Y-73660000D01*
X87630000Y-78740000D02*
X96520000Y-78740000D01*
X87630000Y-90805000D02*
X85090000Y-88265000D01*
X106680000Y-102235000D02*
X106680000Y-97155000D01*
X85090000Y-81280000D02*
X87630000Y-78740000D01*
X121920000Y-73660000D02*
X129540000Y-73660000D01*
%TO.N,Net-(C1-Pad2)*%
X162560000Y-128905000D02*
X159385000Y-125730000D01*
X161925000Y-100965000D02*
X161925000Y-104140000D01*
X112395000Y-121285000D02*
X112395000Y-109855000D01*
X133350000Y-114300000D02*
X137795000Y-109855000D01*
X109220000Y-93980000D02*
X112395000Y-97155000D01*
X157480000Y-80740000D02*
X157480000Y-104775000D01*
X170267621Y-128992621D02*
X163830000Y-122555000D01*
X109220000Y-80740000D02*
X109220000Y-93980000D01*
X170220000Y-104815000D02*
X168942500Y-104815000D01*
X157480000Y-104775000D02*
X159385000Y-106680000D01*
X101045000Y-127635000D02*
X109220000Y-127635000D01*
X109220000Y-80740000D02*
X106140000Y-83820000D01*
X169545000Y-79335000D02*
X169545000Y-93345000D01*
X163830000Y-122555000D02*
X163830000Y-109855000D01*
X133317500Y-101600000D02*
X133350000Y-101600000D01*
X112395000Y-97155000D02*
X112395000Y-109855000D01*
X92042500Y-109855000D02*
X112395000Y-109855000D01*
X133350000Y-109855000D02*
X137795000Y-109855000D01*
X168942500Y-104815000D02*
X168942500Y-109815000D01*
X109220000Y-134620000D02*
X109220000Y-127635000D01*
X163830000Y-109855000D02*
X168902500Y-109855000D01*
X141605000Y-109855000D02*
X159385000Y-109855000D01*
X162600000Y-104815000D02*
X168942500Y-104815000D01*
X96520000Y-132160000D02*
X101045000Y-127635000D01*
X133317500Y-109887500D02*
X133350000Y-109855000D01*
X168902500Y-109855000D02*
X168942500Y-109815000D01*
X105330000Y-83740000D02*
X96520000Y-83740000D01*
X112395000Y-109855000D02*
X133350000Y-109855000D01*
X159385000Y-109855000D02*
X163830000Y-109855000D01*
X137795000Y-109855000D02*
X141605000Y-109855000D01*
X109220000Y-124460000D02*
X112395000Y-121285000D01*
X173355000Y-128992621D02*
X170267621Y-128992621D01*
X159385000Y-106680000D02*
X159385000Y-109855000D01*
X109220000Y-127635000D02*
X109220000Y-124460000D01*
X169545000Y-93345000D02*
X161925000Y-100965000D01*
X106140000Y-83820000D02*
X105410000Y-83820000D01*
X161925000Y-104140000D02*
X162600000Y-104815000D01*
X133317500Y-114300000D02*
X133350000Y-114300000D01*
X105410000Y-83820000D02*
X105330000Y-83740000D01*
X133350000Y-101600000D02*
X141605000Y-109855000D01*
X133317500Y-109822500D02*
X133350000Y-109855000D01*
X159385000Y-125730000D02*
X159385000Y-109855000D01*
X162560000Y-137160000D02*
X162560000Y-128905000D01*
%TO.N,Net-(C2-Pad2)*%
X88900000Y-127000000D02*
X98425000Y-117475000D01*
X127000000Y-137160000D02*
X129540000Y-137160000D01*
X98425000Y-117475000D02*
X106680000Y-117475000D01*
X109220000Y-136620000D02*
X126460000Y-136620000D01*
X88900000Y-129540000D02*
X88900000Y-127000000D01*
X108680000Y-137160000D02*
X109220000Y-136620000D01*
X126460000Y-136620000D02*
X127000000Y-137160000D01*
X96520000Y-137160000D02*
X88900000Y-129540000D01*
X96520000Y-137160000D02*
X108680000Y-137160000D01*
%TO.N,Net-(C6-Pad2)*%
X147320000Y-133350000D02*
X150495000Y-133350000D01*
X177800000Y-130175000D02*
X176482379Y-131492621D01*
X165687621Y-139160000D02*
X173355000Y-131492621D01*
X177800000Y-127635000D02*
X177800000Y-130175000D01*
X150495000Y-133350000D02*
X151765000Y-134620000D01*
X129540000Y-139700000D02*
X140970000Y-139700000D01*
X168942500Y-118777500D02*
X177800000Y-127635000D01*
X168942500Y-114815000D02*
X168942500Y-118777500D01*
X162560000Y-139160000D02*
X165687621Y-139160000D01*
X176482379Y-131492621D02*
X173355000Y-131492621D01*
X140970000Y-139700000D02*
X147320000Y-133350000D01*
X153130000Y-139160000D02*
X162560000Y-139160000D01*
X151765000Y-137795000D02*
X153130000Y-139160000D01*
X151765000Y-134620000D02*
X151765000Y-137795000D01*
%TO.N,Net-(D1-Pad2)*%
X99695000Y-107315000D02*
X106680000Y-107315000D01*
X97235000Y-104855000D02*
X99695000Y-107315000D01*
X92042500Y-104855000D02*
X97235000Y-104855000D01*
%TO.N,Net-(D1-Pad3)*%
X100330000Y-112395000D02*
X106680000Y-112395000D01*
X97870000Y-114855000D02*
X100330000Y-112395000D01*
X92042500Y-114855000D02*
X97870000Y-114855000D01*
%TO.N,Net-(J2-Pad1)*%
X129540000Y-78740000D02*
X129540000Y-81915000D01*
X129540000Y-81915000D02*
X133985000Y-86360000D01*
X133317500Y-96520000D02*
X133317500Y-94647500D01*
X133985000Y-86360000D02*
X139700000Y-86360000D01*
X133317500Y-94647500D02*
X133985000Y-93980000D01*
X133985000Y-93980000D02*
X133985000Y-86360000D01*
%TO.N,Net-(J3-Pad2)*%
X144812500Y-123792500D02*
X133317500Y-123792500D01*
X129540000Y-127635000D02*
X133350000Y-123825000D01*
X133317500Y-123792500D02*
X133317500Y-119380000D01*
X147320000Y-120650000D02*
X147955000Y-120650000D01*
X147955000Y-120650000D02*
X144812500Y-123792500D01*
X133350000Y-123825000D02*
X133317500Y-123792500D01*
X129540000Y-134620000D02*
X129540000Y-127635000D01*
%TO.N,Net-(J4-Pad4)*%
X173355000Y-80645000D02*
X173355000Y-95402500D01*
X146050000Y-73660000D02*
X151130000Y-78740000D01*
X139700000Y-73660000D02*
X146050000Y-73660000D01*
X133985000Y-76200000D02*
X129540000Y-76200000D01*
X165100000Y-76835000D02*
X163195000Y-78740000D01*
X163195000Y-78740000D02*
X157480000Y-78740000D01*
X173355000Y-95402500D02*
X168942500Y-99815000D01*
X136525000Y-73660000D02*
X133985000Y-76200000D01*
X139700000Y-73660000D02*
X136525000Y-73660000D01*
X151130000Y-78740000D02*
X157480000Y-78740000D01*
X169545000Y-76835000D02*
X173355000Y-80645000D01*
X169545000Y-76835000D02*
X165100000Y-76835000D01*
%TD*%
M02*
