%TF.GenerationSoftware,KiCad,Pcbnew,(6.0.7)*%
%TF.CreationDate,2022-09-22T15:33:20-05:00*%
%TF.ProjectId,2611,32363131-2e6b-4696-9361-645f70636258,rev?*%
%TF.SameCoordinates,Original*%
%TF.FileFunction,Legend,Top*%
%TF.FilePolarity,Positive*%
%FSLAX46Y46*%
G04 Gerber Fmt 4.6, Leading zero omitted, Abs format (unit mm)*
G04 Created by KiCad (PCBNEW (6.0.7)) date 2022-09-22 15:33:20*
%MOMM*%
%LPD*%
G01*
G04 APERTURE LIST*
%ADD10C,0.150000*%
%ADD11C,0.120000*%
G04 APERTURE END LIST*
D10*
%TO.C,R1*%
X142872380Y-80176666D02*
X142396190Y-80510000D01*
X142872380Y-80748095D02*
X141872380Y-80748095D01*
X141872380Y-80367142D01*
X141920000Y-80271904D01*
X141967619Y-80224285D01*
X142062857Y-80176666D01*
X142205714Y-80176666D01*
X142300952Y-80224285D01*
X142348571Y-80271904D01*
X142396190Y-80367142D01*
X142396190Y-80748095D01*
X142872380Y-79224285D02*
X142872380Y-79795714D01*
X142872380Y-79510000D02*
X141872380Y-79510000D01*
X142015238Y-79605238D01*
X142110476Y-79700476D01*
X142158095Y-79795714D01*
%TO.C,R2*%
X150492380Y-127166666D02*
X150016190Y-127500000D01*
X150492380Y-127738095D02*
X149492380Y-127738095D01*
X149492380Y-127357142D01*
X149540000Y-127261904D01*
X149587619Y-127214285D01*
X149682857Y-127166666D01*
X149825714Y-127166666D01*
X149920952Y-127214285D01*
X149968571Y-127261904D01*
X150016190Y-127357142D01*
X150016190Y-127738095D01*
X149587619Y-126785714D02*
X149540000Y-126738095D01*
X149492380Y-126642857D01*
X149492380Y-126404761D01*
X149540000Y-126309523D01*
X149587619Y-126261904D01*
X149682857Y-126214285D01*
X149778095Y-126214285D01*
X149920952Y-126261904D01*
X150492380Y-126833333D01*
X150492380Y-126214285D01*
%TO.C,C7*%
X174302142Y-78251666D02*
X174349761Y-78299285D01*
X174397380Y-78442142D01*
X174397380Y-78537380D01*
X174349761Y-78680238D01*
X174254523Y-78775476D01*
X174159285Y-78823095D01*
X173968809Y-78870714D01*
X173825952Y-78870714D01*
X173635476Y-78823095D01*
X173540238Y-78775476D01*
X173445000Y-78680238D01*
X173397380Y-78537380D01*
X173397380Y-78442142D01*
X173445000Y-78299285D01*
X173492619Y-78251666D01*
X173397380Y-77918333D02*
X173397380Y-77251666D01*
X174397380Y-77680238D01*
%TO.C,J3*%
X135969880Y-117173333D02*
X136684166Y-117173333D01*
X136827023Y-117220952D01*
X136922261Y-117316190D01*
X136969880Y-117459047D01*
X136969880Y-117554285D01*
X135969880Y-116792380D02*
X135969880Y-116173333D01*
X136350833Y-116506666D01*
X136350833Y-116363809D01*
X136398452Y-116268571D01*
X136446071Y-116220952D01*
X136541309Y-116173333D01*
X136779404Y-116173333D01*
X136874642Y-116220952D01*
X136922261Y-116268571D01*
X136969880Y-116363809D01*
X136969880Y-116649523D01*
X136922261Y-116744761D01*
X136874642Y-116792380D01*
%TO.C,C6*%
X166167142Y-138326666D02*
X166214761Y-138374285D01*
X166262380Y-138517142D01*
X166262380Y-138612380D01*
X166214761Y-138755238D01*
X166119523Y-138850476D01*
X166024285Y-138898095D01*
X165833809Y-138945714D01*
X165690952Y-138945714D01*
X165500476Y-138898095D01*
X165405238Y-138850476D01*
X165310000Y-138755238D01*
X165262380Y-138612380D01*
X165262380Y-138517142D01*
X165310000Y-138374285D01*
X165357619Y-138326666D01*
X165262380Y-137469523D02*
X165262380Y-137660000D01*
X165310000Y-137755238D01*
X165357619Y-137802857D01*
X165500476Y-137898095D01*
X165690952Y-137945714D01*
X166071904Y-137945714D01*
X166167142Y-137898095D01*
X166214761Y-137850476D01*
X166262380Y-137755238D01*
X166262380Y-137564761D01*
X166214761Y-137469523D01*
X166167142Y-137421904D01*
X166071904Y-137374285D01*
X165833809Y-137374285D01*
X165738571Y-137421904D01*
X165690952Y-137469523D01*
X165643333Y-137564761D01*
X165643333Y-137755238D01*
X165690952Y-137850476D01*
X165738571Y-137898095D01*
X165833809Y-137945714D01*
%TO.C,U1*%
X124722380Y-76961904D02*
X125531904Y-76961904D01*
X125627142Y-76914285D01*
X125674761Y-76866666D01*
X125722380Y-76771428D01*
X125722380Y-76580952D01*
X125674761Y-76485714D01*
X125627142Y-76438095D01*
X125531904Y-76390476D01*
X124722380Y-76390476D01*
X125722380Y-75390476D02*
X125722380Y-75961904D01*
X125722380Y-75676190D02*
X124722380Y-75676190D01*
X124865238Y-75771428D01*
X124960476Y-75866666D01*
X125008095Y-75961904D01*
%TO.C,C3*%
X112827142Y-79906666D02*
X112874761Y-79954285D01*
X112922380Y-80097142D01*
X112922380Y-80192380D01*
X112874761Y-80335238D01*
X112779523Y-80430476D01*
X112684285Y-80478095D01*
X112493809Y-80525714D01*
X112350952Y-80525714D01*
X112160476Y-80478095D01*
X112065238Y-80430476D01*
X111970000Y-80335238D01*
X111922380Y-80192380D01*
X111922380Y-80097142D01*
X111970000Y-79954285D01*
X112017619Y-79906666D01*
X111922380Y-79573333D02*
X111922380Y-78954285D01*
X112303333Y-79287619D01*
X112303333Y-79144761D01*
X112350952Y-79049523D01*
X112398571Y-79001904D01*
X112493809Y-78954285D01*
X112731904Y-78954285D01*
X112827142Y-79001904D01*
X112874761Y-79049523D01*
X112922380Y-79144761D01*
X112922380Y-79430476D01*
X112874761Y-79525714D01*
X112827142Y-79573333D01*
%TO.C,C2*%
X103127142Y-134826666D02*
X103174761Y-134874285D01*
X103222380Y-135017142D01*
X103222380Y-135112380D01*
X103174761Y-135255238D01*
X103079523Y-135350476D01*
X102984285Y-135398095D01*
X102793809Y-135445714D01*
X102650952Y-135445714D01*
X102460476Y-135398095D01*
X102365238Y-135350476D01*
X102270000Y-135255238D01*
X102222380Y-135112380D01*
X102222380Y-135017142D01*
X102270000Y-134874285D01*
X102317619Y-134826666D01*
X102317619Y-134445714D02*
X102270000Y-134398095D01*
X102222380Y-134302857D01*
X102222380Y-134064761D01*
X102270000Y-133969523D01*
X102317619Y-133921904D01*
X102412857Y-133874285D01*
X102508095Y-133874285D01*
X102650952Y-133921904D01*
X103222380Y-134493333D01*
X103222380Y-133874285D01*
%TO.C,J1*%
X94694880Y-110188333D02*
X95409166Y-110188333D01*
X95552023Y-110235952D01*
X95647261Y-110331190D01*
X95694880Y-110474047D01*
X95694880Y-110569285D01*
X95694880Y-109188333D02*
X95694880Y-109759761D01*
X95694880Y-109474047D02*
X94694880Y-109474047D01*
X94837738Y-109569285D01*
X94932976Y-109664523D01*
X94980595Y-109759761D01*
%TO.C,J4*%
X165194880Y-107648333D02*
X165909166Y-107648333D01*
X166052023Y-107695952D01*
X166147261Y-107791190D01*
X166194880Y-107934047D01*
X166194880Y-108029285D01*
X165528214Y-106743571D02*
X166194880Y-106743571D01*
X165147261Y-106981666D02*
X165861547Y-107219761D01*
X165861547Y-106600714D01*
%TO.C,C4*%
X112827142Y-135786666D02*
X112874761Y-135834285D01*
X112922380Y-135977142D01*
X112922380Y-136072380D01*
X112874761Y-136215238D01*
X112779523Y-136310476D01*
X112684285Y-136358095D01*
X112493809Y-136405714D01*
X112350952Y-136405714D01*
X112160476Y-136358095D01*
X112065238Y-136310476D01*
X111970000Y-136215238D01*
X111922380Y-136072380D01*
X111922380Y-135977142D01*
X111970000Y-135834285D01*
X112017619Y-135786666D01*
X112255714Y-134929523D02*
X112922380Y-134929523D01*
X111874761Y-135167619D02*
X112589047Y-135405714D01*
X112589047Y-134786666D01*
%TO.C,U2*%
X133262380Y-137921904D02*
X134071904Y-137921904D01*
X134167142Y-137874285D01*
X134214761Y-137826666D01*
X134262380Y-137731428D01*
X134262380Y-137540952D01*
X134214761Y-137445714D01*
X134167142Y-137398095D01*
X134071904Y-137350476D01*
X133262380Y-137350476D01*
X133357619Y-136921904D02*
X133310000Y-136874285D01*
X133262380Y-136779047D01*
X133262380Y-136540952D01*
X133310000Y-136445714D01*
X133357619Y-136398095D01*
X133452857Y-136350476D01*
X133548095Y-136350476D01*
X133690952Y-136398095D01*
X134262380Y-136969523D01*
X134262380Y-136350476D01*
%TO.C,C1*%
X103127142Y-81406666D02*
X103174761Y-81454285D01*
X103222380Y-81597142D01*
X103222380Y-81692380D01*
X103174761Y-81835238D01*
X103079523Y-81930476D01*
X102984285Y-81978095D01*
X102793809Y-82025714D01*
X102650952Y-82025714D01*
X102460476Y-81978095D01*
X102365238Y-81930476D01*
X102270000Y-81835238D01*
X102222380Y-81692380D01*
X102222380Y-81597142D01*
X102270000Y-81454285D01*
X102317619Y-81406666D01*
X103222380Y-80454285D02*
X103222380Y-81025714D01*
X103222380Y-80740000D02*
X102222380Y-80740000D01*
X102365238Y-80835238D01*
X102460476Y-80930476D01*
X102508095Y-81025714D01*
%TO.C,C8*%
X178112142Y-130409287D02*
X178159761Y-130456906D01*
X178207380Y-130599763D01*
X178207380Y-130695001D01*
X178159761Y-130837859D01*
X178064523Y-130933097D01*
X177969285Y-130980716D01*
X177778809Y-131028335D01*
X177635952Y-131028335D01*
X177445476Y-130980716D01*
X177350238Y-130933097D01*
X177255000Y-130837859D01*
X177207380Y-130695001D01*
X177207380Y-130599763D01*
X177255000Y-130456906D01*
X177302619Y-130409287D01*
X177635952Y-129837859D02*
X177588333Y-129933097D01*
X177540714Y-129980716D01*
X177445476Y-130028335D01*
X177397857Y-130028335D01*
X177302619Y-129980716D01*
X177255000Y-129933097D01*
X177207380Y-129837859D01*
X177207380Y-129647382D01*
X177255000Y-129552144D01*
X177302619Y-129504525D01*
X177397857Y-129456906D01*
X177445476Y-129456906D01*
X177540714Y-129504525D01*
X177588333Y-129552144D01*
X177635952Y-129647382D01*
X177635952Y-129837859D01*
X177683571Y-129933097D01*
X177731190Y-129980716D01*
X177826428Y-130028335D01*
X178016904Y-130028335D01*
X178112142Y-129980716D01*
X178159761Y-129933097D01*
X178207380Y-129837859D01*
X178207380Y-129647382D01*
X178159761Y-129552144D01*
X178112142Y-129504525D01*
X178016904Y-129456906D01*
X177826428Y-129456906D01*
X177731190Y-129504525D01*
X177683571Y-129552144D01*
X177635952Y-129647382D01*
%TO.C,D1*%
X110232380Y-110773095D02*
X109232380Y-110773095D01*
X109232380Y-110535000D01*
X109280000Y-110392142D01*
X109375238Y-110296904D01*
X109470476Y-110249285D01*
X109660952Y-110201666D01*
X109803809Y-110201666D01*
X109994285Y-110249285D01*
X110089523Y-110296904D01*
X110184761Y-110392142D01*
X110232380Y-110535000D01*
X110232380Y-110773095D01*
X110232380Y-109249285D02*
X110232380Y-109820714D01*
X110232380Y-109535000D02*
X109232380Y-109535000D01*
X109375238Y-109630238D01*
X109470476Y-109725476D01*
X109518095Y-109820714D01*
%TO.C,J2*%
X135969880Y-99393333D02*
X136684166Y-99393333D01*
X136827023Y-99440952D01*
X136922261Y-99536190D01*
X136969880Y-99679047D01*
X136969880Y-99774285D01*
X136065119Y-98964761D02*
X136017500Y-98917142D01*
X135969880Y-98821904D01*
X135969880Y-98583809D01*
X136017500Y-98488571D01*
X136065119Y-98440952D01*
X136160357Y-98393333D01*
X136255595Y-98393333D01*
X136398452Y-98440952D01*
X136969880Y-99012380D01*
X136969880Y-98393333D01*
%TO.C,C5*%
X161087142Y-79906666D02*
X161134761Y-79954285D01*
X161182380Y-80097142D01*
X161182380Y-80192380D01*
X161134761Y-80335238D01*
X161039523Y-80430476D01*
X160944285Y-80478095D01*
X160753809Y-80525714D01*
X160610952Y-80525714D01*
X160420476Y-80478095D01*
X160325238Y-80430476D01*
X160230000Y-80335238D01*
X160182380Y-80192380D01*
X160182380Y-80097142D01*
X160230000Y-79954285D01*
X160277619Y-79906666D01*
X160182380Y-79001904D02*
X160182380Y-79478095D01*
X160658571Y-79525714D01*
X160610952Y-79478095D01*
X160563333Y-79382857D01*
X160563333Y-79144761D01*
X160610952Y-79049523D01*
X160658571Y-79001904D01*
X160753809Y-78954285D01*
X160991904Y-78954285D01*
X161087142Y-79001904D01*
X161134761Y-79049523D01*
X161182380Y-79144761D01*
X161182380Y-79382857D01*
X161134761Y-79478095D01*
X161087142Y-79525714D01*
D11*
%TO.C,R1*%
X141420000Y-84630000D02*
X141420000Y-75390000D01*
X139700000Y-74700000D02*
X139700000Y-75390000D01*
X137980000Y-84630000D02*
X141420000Y-84630000D01*
X141420000Y-75390000D02*
X137980000Y-75390000D01*
X137980000Y-75390000D02*
X137980000Y-84630000D01*
X139700000Y-85320000D02*
X139700000Y-84630000D01*
%TO.C,R2*%
X149040000Y-122380000D02*
X145600000Y-122380000D01*
X149040000Y-131620000D02*
X149040000Y-122380000D01*
X147320000Y-132310000D02*
X147320000Y-131620000D01*
X147320000Y-121690000D02*
X147320000Y-122380000D01*
X145600000Y-122380000D02*
X145600000Y-131620000D01*
X145600000Y-131620000D02*
X149040000Y-131620000D01*
%TO.C,C7*%
X168505000Y-79126000D02*
X166484000Y-79126000D01*
X172547000Y-79286000D02*
X170585000Y-79286000D01*
X172775000Y-78085000D02*
X166315000Y-78085000D01*
X172181000Y-79966000D02*
X170585000Y-79966000D01*
X168505000Y-80246000D02*
X167129000Y-80246000D01*
X172421000Y-79566000D02*
X170585000Y-79566000D01*
X168505000Y-78926000D02*
X166424000Y-78926000D01*
X168505000Y-78565000D02*
X166350000Y-78565000D01*
X171637000Y-80566000D02*
X167453000Y-80566000D01*
X168505000Y-78966000D02*
X166435000Y-78966000D01*
X170977000Y-81006000D02*
X168113000Y-81006000D01*
X171850000Y-80366000D02*
X170585000Y-80366000D01*
X172441000Y-79526000D02*
X170585000Y-79526000D01*
X171961000Y-80246000D02*
X170585000Y-80246000D01*
X168505000Y-80206000D02*
X167095000Y-80206000D01*
X168505000Y-78846000D02*
X166404000Y-78846000D01*
X170895000Y-81046000D02*
X168195000Y-81046000D01*
X172767000Y-78325000D02*
X170585000Y-78325000D01*
X168505000Y-79886000D02*
X166855000Y-79886000D01*
X171769000Y-80446000D02*
X167321000Y-80446000D01*
X171699000Y-74899759D02*
X171069000Y-74899759D01*
X172751000Y-78485000D02*
X170585000Y-78485000D01*
X172515000Y-79366000D02*
X170585000Y-79366000D01*
X172695000Y-78806000D02*
X170585000Y-78806000D01*
X168505000Y-79246000D02*
X166527000Y-79246000D01*
X168505000Y-78605000D02*
X166356000Y-78605000D01*
X168505000Y-79486000D02*
X166629000Y-79486000D01*
X170710000Y-81126000D02*
X168380000Y-81126000D01*
X172746000Y-78525000D02*
X170585000Y-78525000D01*
X171384000Y-74584759D02*
X171384000Y-75214759D01*
X172209000Y-79926000D02*
X170585000Y-79926000D01*
X168505000Y-79086000D02*
X166471000Y-79086000D01*
X168505000Y-78325000D02*
X166323000Y-78325000D01*
X172563000Y-79246000D02*
X170585000Y-79246000D01*
X170807000Y-81086000D02*
X168283000Y-81086000D01*
X171540000Y-80646000D02*
X167550000Y-80646000D01*
X168505000Y-78525000D02*
X166344000Y-78525000D01*
X172335000Y-79726000D02*
X170585000Y-79726000D01*
X171195000Y-80886000D02*
X167895000Y-80886000D01*
X171489000Y-80686000D02*
X167601000Y-80686000D01*
X172775000Y-78125000D02*
X166315000Y-78125000D01*
X172643000Y-79006000D02*
X170585000Y-79006000D01*
X168505000Y-79446000D02*
X166611000Y-79446000D01*
X168505000Y-79806000D02*
X166803000Y-79806000D01*
X172531000Y-79326000D02*
X170585000Y-79326000D01*
X170604000Y-81166000D02*
X168486000Y-81166000D01*
X168505000Y-78725000D02*
X166378000Y-78725000D01*
X171126000Y-80926000D02*
X167964000Y-80926000D01*
X172606000Y-79126000D02*
X170585000Y-79126000D01*
X171435000Y-80726000D02*
X167655000Y-80726000D01*
X172676000Y-78886000D02*
X170585000Y-78886000D01*
X172666000Y-78926000D02*
X170585000Y-78926000D01*
X168505000Y-79286000D02*
X166543000Y-79286000D01*
X171682000Y-80526000D02*
X167408000Y-80526000D01*
X172357000Y-79686000D02*
X170585000Y-79686000D01*
X172763000Y-78365000D02*
X170585000Y-78365000D01*
X168505000Y-79926000D02*
X166881000Y-79926000D01*
X171888000Y-80326000D02*
X170585000Y-80326000D01*
X168505000Y-79046000D02*
X166459000Y-79046000D01*
X172235000Y-79886000D02*
X170585000Y-79886000D01*
X172479000Y-79446000D02*
X170585000Y-79446000D01*
X168505000Y-80286000D02*
X167165000Y-80286000D01*
X168505000Y-80086000D02*
X166997000Y-80086000D01*
X172760000Y-78405000D02*
X170585000Y-78405000D01*
X172712000Y-78725000D02*
X170585000Y-78725000D01*
X170485000Y-81206000D02*
X168605000Y-81206000D01*
X168505000Y-78886000D02*
X166414000Y-78886000D01*
X168505000Y-79726000D02*
X166755000Y-79726000D01*
X171925000Y-80286000D02*
X170585000Y-80286000D01*
X172769000Y-78285000D02*
X166321000Y-78285000D01*
X172379000Y-79646000D02*
X170585000Y-79646000D01*
X172720000Y-78685000D02*
X170585000Y-78685000D01*
X171727000Y-80486000D02*
X167363000Y-80486000D01*
X168505000Y-78445000D02*
X166334000Y-78445000D01*
X168505000Y-79966000D02*
X166909000Y-79966000D01*
X169947000Y-81326000D02*
X169143000Y-81326000D01*
X171589000Y-80606000D02*
X167501000Y-80606000D01*
X168505000Y-79646000D02*
X166711000Y-79646000D01*
X172261000Y-79846000D02*
X170585000Y-79846000D01*
X168505000Y-78645000D02*
X166363000Y-78645000D01*
X168505000Y-78365000D02*
X166327000Y-78365000D01*
X168505000Y-78685000D02*
X166370000Y-78685000D01*
X168505000Y-80126000D02*
X167029000Y-80126000D01*
X171054000Y-80966000D02*
X168036000Y-80966000D01*
X168505000Y-80326000D02*
X167202000Y-80326000D01*
X172497000Y-79406000D02*
X170585000Y-79406000D01*
X172592000Y-79166000D02*
X170585000Y-79166000D01*
X172740000Y-78565000D02*
X170585000Y-78565000D01*
X171810000Y-80406000D02*
X167280000Y-80406000D01*
X172773000Y-78205000D02*
X166317000Y-78205000D01*
X168505000Y-78806000D02*
X166395000Y-78806000D01*
X172756000Y-78445000D02*
X170585000Y-78445000D01*
X172619000Y-79086000D02*
X170585000Y-79086000D01*
X171995000Y-80206000D02*
X170585000Y-80206000D01*
X172093000Y-80086000D02*
X170585000Y-80086000D01*
X172578000Y-79206000D02*
X170585000Y-79206000D01*
X172311000Y-79766000D02*
X170585000Y-79766000D01*
X168505000Y-79686000D02*
X166733000Y-79686000D01*
X172287000Y-79806000D02*
X170585000Y-79806000D01*
X172631000Y-79046000D02*
X170585000Y-79046000D01*
X172461000Y-79486000D02*
X170585000Y-79486000D01*
X172772000Y-78245000D02*
X166318000Y-78245000D01*
X168505000Y-79366000D02*
X166575000Y-79366000D01*
X172061000Y-80126000D02*
X170585000Y-80126000D01*
X168505000Y-79206000D02*
X166512000Y-79206000D01*
X168505000Y-79566000D02*
X166669000Y-79566000D01*
X168505000Y-80006000D02*
X166938000Y-80006000D01*
X171321000Y-80806000D02*
X167769000Y-80806000D01*
X168505000Y-80366000D02*
X167240000Y-80366000D01*
X172704000Y-78765000D02*
X170585000Y-78765000D01*
X171379000Y-80766000D02*
X167711000Y-80766000D01*
X172686000Y-78846000D02*
X170585000Y-78846000D01*
X172775000Y-78165000D02*
X166315000Y-78165000D01*
X168505000Y-78485000D02*
X166339000Y-78485000D01*
X172401000Y-79606000D02*
X170585000Y-79606000D01*
X170178000Y-81286000D02*
X168912000Y-81286000D01*
X168505000Y-79766000D02*
X166779000Y-79766000D01*
X168505000Y-78765000D02*
X166386000Y-78765000D01*
X168505000Y-78405000D02*
X166330000Y-78405000D01*
X168505000Y-79846000D02*
X166829000Y-79846000D01*
X168505000Y-79406000D02*
X166593000Y-79406000D01*
X168505000Y-79606000D02*
X166689000Y-79606000D01*
X168505000Y-79526000D02*
X166649000Y-79526000D01*
X168505000Y-79326000D02*
X166559000Y-79326000D01*
X172734000Y-78605000D02*
X170585000Y-78605000D01*
X168505000Y-80046000D02*
X166967000Y-80046000D01*
X172152000Y-80006000D02*
X170585000Y-80006000D01*
X172727000Y-78645000D02*
X170585000Y-78645000D01*
X168505000Y-79166000D02*
X166498000Y-79166000D01*
X168505000Y-79006000D02*
X166447000Y-79006000D01*
X170347000Y-81246000D02*
X168743000Y-81246000D01*
X172655000Y-78966000D02*
X170585000Y-78966000D01*
X172029000Y-80166000D02*
X170585000Y-80166000D01*
X168505000Y-80166000D02*
X167061000Y-80166000D01*
X172123000Y-80046000D02*
X170585000Y-80046000D01*
X171259000Y-80846000D02*
X167831000Y-80846000D01*
X172815000Y-78085000D02*
G75*
G03*
X172815000Y-78085000I-3270000J0D01*
G01*
%TO.C,J3*%
X123207500Y-123030000D02*
X135427500Y-123030000D01*
X123207500Y-110650000D02*
X123207500Y-123030000D01*
X124707500Y-120130000D02*
X124707500Y-118630000D01*
X124707500Y-115050000D02*
X124707500Y-113550000D01*
X135627500Y-114300000D02*
X136227500Y-114000000D01*
X135427500Y-123030000D02*
X135427500Y-110650000D01*
X124707500Y-118630000D02*
X123207500Y-118380000D01*
X123207500Y-120380000D02*
X124707500Y-120130000D01*
X126507500Y-123030000D02*
X124707500Y-123030000D01*
X126507500Y-110650000D02*
X126507500Y-123030000D01*
X123207500Y-113300000D02*
X123207500Y-115300000D01*
X136227500Y-114000000D02*
X136227500Y-114600000D01*
X136227500Y-114600000D02*
X135627500Y-114300000D01*
X124707500Y-123030000D02*
X124707500Y-110650000D01*
X124707500Y-110650000D02*
X126507500Y-110650000D01*
X123207500Y-118380000D02*
X123207500Y-120380000D01*
X123207500Y-115300000D02*
X124707500Y-115050000D01*
X135427500Y-110650000D02*
X123207500Y-110650000D01*
X124707500Y-113550000D02*
X123207500Y-113300000D01*
%TO.C,C6*%
X164616000Y-138480000D02*
X163400000Y-138480000D01*
X163760000Y-139881000D02*
X163400000Y-139881000D01*
X163419000Y-140081000D02*
X161701000Y-140081000D01*
X164594000Y-138600000D02*
X163400000Y-138600000D01*
X161720000Y-138560000D02*
X160518000Y-138560000D01*
X161720000Y-138480000D02*
X160504000Y-138480000D01*
X162930000Y-140241000D02*
X162190000Y-140241000D01*
X161720000Y-139601000D02*
X161044000Y-139601000D01*
X164179000Y-139481000D02*
X163400000Y-139481000D01*
X161720000Y-139561000D02*
X161008000Y-139561000D01*
X161720000Y-138800000D02*
X160578000Y-138800000D01*
X164345000Y-139241000D02*
X163400000Y-139241000D01*
X164631000Y-138360000D02*
X163400000Y-138360000D01*
X161720000Y-138640000D02*
X160535000Y-138640000D01*
X164038000Y-139641000D02*
X163400000Y-139641000D01*
X161720000Y-138881000D02*
X160606000Y-138881000D01*
X163814000Y-139841000D02*
X163400000Y-139841000D01*
X164640000Y-138200000D02*
X160480000Y-138200000D01*
X164268000Y-139361000D02*
X163400000Y-139361000D01*
X163500000Y-140041000D02*
X161620000Y-140041000D01*
X164484000Y-138961000D02*
X163400000Y-138961000D01*
X161720000Y-138360000D02*
X160489000Y-138360000D01*
X164411000Y-139121000D02*
X163400000Y-139121000D01*
X164430000Y-139081000D02*
X163400000Y-139081000D01*
X161720000Y-139841000D02*
X161306000Y-139841000D01*
X161720000Y-138840000D02*
X160592000Y-138840000D01*
X163097000Y-140201000D02*
X162023000Y-140201000D01*
X161720000Y-139681000D02*
X161122000Y-139681000D01*
X164622000Y-138440000D02*
X163400000Y-138440000D01*
X164295000Y-139321000D02*
X163400000Y-139321000D01*
X163224000Y-140161000D02*
X161896000Y-140161000D01*
X161720000Y-138680000D02*
X160544000Y-138680000D01*
X161720000Y-139361000D02*
X160852000Y-139361000D01*
X163640000Y-139961000D02*
X163400000Y-139961000D01*
X164554000Y-138760000D02*
X163400000Y-138760000D01*
X164627000Y-138400000D02*
X163400000Y-138400000D01*
X164565000Y-138720000D02*
X163400000Y-138720000D01*
X163998000Y-139681000D02*
X163400000Y-139681000D01*
X161720000Y-138921000D02*
X160620000Y-138921000D01*
X164528000Y-138840000D02*
X163400000Y-138840000D01*
X164634000Y-138320000D02*
X160486000Y-138320000D01*
X161720000Y-139481000D02*
X160941000Y-139481000D01*
X164390000Y-139161000D02*
X163400000Y-139161000D01*
X163864000Y-139801000D02*
X163400000Y-139801000D01*
X161720000Y-139081000D02*
X160690000Y-139081000D01*
X164320000Y-139281000D02*
X163400000Y-139281000D01*
X161720000Y-139721000D02*
X161164000Y-139721000D01*
X161720000Y-139881000D02*
X161360000Y-139881000D01*
X161720000Y-138600000D02*
X160526000Y-138600000D01*
X161720000Y-139321000D02*
X160825000Y-139321000D01*
X164467000Y-139001000D02*
X163400000Y-139001000D01*
X164449000Y-139041000D02*
X163400000Y-139041000D01*
X164637000Y-138280000D02*
X160483000Y-138280000D01*
X161720000Y-139201000D02*
X160752000Y-139201000D01*
X164210000Y-139441000D02*
X163400000Y-139441000D01*
X164585000Y-138640000D02*
X163400000Y-138640000D01*
X164112000Y-139561000D02*
X163400000Y-139561000D01*
X161720000Y-139761000D02*
X161209000Y-139761000D01*
X161720000Y-139001000D02*
X160653000Y-139001000D01*
X161720000Y-139921000D02*
X161418000Y-139921000D01*
X164640000Y-138160000D02*
X160480000Y-138160000D01*
X161720000Y-139961000D02*
X161480000Y-139961000D01*
X163702000Y-139921000D02*
X163400000Y-139921000D01*
X161720000Y-139121000D02*
X160709000Y-139121000D01*
X163573000Y-140001000D02*
X161547000Y-140001000D01*
X163755000Y-135890199D02*
X163755000Y-136290199D01*
X164076000Y-139601000D02*
X163400000Y-139601000D01*
X161720000Y-139521000D02*
X160973000Y-139521000D01*
X164639000Y-138240000D02*
X160481000Y-138240000D01*
X163955000Y-136090199D02*
X163555000Y-136090199D01*
X161720000Y-138520000D02*
X160510000Y-138520000D01*
X164602000Y-138560000D02*
X163400000Y-138560000D01*
X161720000Y-139281000D02*
X160800000Y-139281000D01*
X164610000Y-138520000D02*
X163400000Y-138520000D01*
X161720000Y-139241000D02*
X160775000Y-139241000D01*
X164542000Y-138800000D02*
X163400000Y-138800000D01*
X161720000Y-138440000D02*
X160498000Y-138440000D01*
X164514000Y-138881000D02*
X163400000Y-138881000D01*
X161720000Y-138400000D02*
X160493000Y-138400000D01*
X163956000Y-139721000D02*
X163400000Y-139721000D01*
X161720000Y-138720000D02*
X160555000Y-138720000D01*
X161720000Y-139801000D02*
X161256000Y-139801000D01*
X164147000Y-139521000D02*
X163400000Y-139521000D01*
X161720000Y-138961000D02*
X160636000Y-138961000D01*
X161720000Y-139401000D02*
X160880000Y-139401000D01*
X164240000Y-139401000D02*
X163400000Y-139401000D01*
X161720000Y-139041000D02*
X160671000Y-139041000D01*
X161720000Y-139641000D02*
X161082000Y-139641000D01*
X164368000Y-139201000D02*
X163400000Y-139201000D01*
X164500000Y-138921000D02*
X163400000Y-138921000D01*
X161720000Y-138760000D02*
X160566000Y-138760000D01*
X164576000Y-138680000D02*
X163400000Y-138680000D01*
X161720000Y-139161000D02*
X160730000Y-139161000D01*
X161720000Y-139441000D02*
X160910000Y-139441000D01*
X163911000Y-139761000D02*
X163400000Y-139761000D01*
X163328000Y-140121000D02*
X161792000Y-140121000D01*
X164680000Y-138160000D02*
G75*
G03*
X164680000Y-138160000I-2120000J0D01*
G01*
%TO.C,U1*%
X127780000Y-81320000D02*
X127780000Y-71080000D01*
X130911000Y-81320000D02*
X130911000Y-71080000D01*
X126270000Y-81320000D02*
X126270000Y-71080000D01*
X126270000Y-78050000D02*
X127780000Y-78050000D01*
X126270000Y-71080000D02*
X130911000Y-71080000D01*
X126270000Y-81320000D02*
X130911000Y-81320000D01*
X126270000Y-74349000D02*
X127780000Y-74349000D01*
%TO.C,C3*%
X111050000Y-80741000D02*
X110060000Y-80741000D01*
X111299000Y-79820000D02*
X107141000Y-79820000D01*
X111005000Y-80821000D02*
X110060000Y-80821000D01*
X110772000Y-81141000D02*
X110060000Y-81141000D01*
X108380000Y-81021000D02*
X107570000Y-81021000D01*
X108380000Y-81221000D02*
X107742000Y-81221000D01*
X108380000Y-80741000D02*
X107390000Y-80741000D01*
X111109000Y-80621000D02*
X110060000Y-80621000D01*
X110233000Y-81581000D02*
X108207000Y-81581000D01*
X110524000Y-81381000D02*
X110060000Y-81381000D01*
X108380000Y-80661000D02*
X107350000Y-80661000D01*
X110928000Y-80941000D02*
X110060000Y-80941000D01*
X110980000Y-80861000D02*
X110060000Y-80861000D01*
X108380000Y-80060000D02*
X107164000Y-80060000D01*
X111090000Y-80661000D02*
X110060000Y-80661000D01*
X110615000Y-77670199D02*
X110215000Y-77670199D01*
X111214000Y-80340000D02*
X110060000Y-80340000D01*
X110616000Y-81301000D02*
X110060000Y-81301000D01*
X111071000Y-80701000D02*
X110060000Y-80701000D01*
X110415000Y-77470199D02*
X110415000Y-77870199D01*
X108380000Y-80781000D02*
X107412000Y-80781000D01*
X111028000Y-80781000D02*
X110060000Y-80781000D01*
X108380000Y-81501000D02*
X108078000Y-81501000D01*
X110571000Y-81341000D02*
X110060000Y-81341000D01*
X108380000Y-81461000D02*
X108020000Y-81461000D01*
X108380000Y-80300000D02*
X107215000Y-80300000D01*
X111202000Y-80380000D02*
X110060000Y-80380000D01*
X111262000Y-80140000D02*
X110060000Y-80140000D01*
X111225000Y-80300000D02*
X110060000Y-80300000D01*
X110420000Y-81461000D02*
X110060000Y-81461000D01*
X108380000Y-81381000D02*
X107916000Y-81381000D01*
X109988000Y-81701000D02*
X108452000Y-81701000D01*
X108380000Y-81301000D02*
X107824000Y-81301000D01*
X108380000Y-80981000D02*
X107540000Y-80981000D01*
X111297000Y-79860000D02*
X107143000Y-79860000D01*
X108380000Y-80380000D02*
X107238000Y-80380000D01*
X108380000Y-80621000D02*
X107331000Y-80621000D01*
X110955000Y-80901000D02*
X110060000Y-80901000D01*
X110362000Y-81501000D02*
X110060000Y-81501000D01*
X111144000Y-80541000D02*
X110060000Y-80541000D01*
X108380000Y-80220000D02*
X107195000Y-80220000D01*
X110839000Y-81061000D02*
X110060000Y-81061000D01*
X110870000Y-81021000D02*
X110060000Y-81021000D01*
X111188000Y-80420000D02*
X110060000Y-80420000D01*
X108380000Y-79940000D02*
X107149000Y-79940000D01*
X111245000Y-80220000D02*
X110060000Y-80220000D01*
X108380000Y-80701000D02*
X107369000Y-80701000D01*
X108380000Y-81061000D02*
X107601000Y-81061000D01*
X110807000Y-81101000D02*
X110060000Y-81101000D01*
X108380000Y-80861000D02*
X107460000Y-80861000D01*
X108380000Y-80461000D02*
X107266000Y-80461000D01*
X108380000Y-80941000D02*
X107512000Y-80941000D01*
X108380000Y-80140000D02*
X107178000Y-80140000D01*
X108380000Y-79980000D02*
X107153000Y-79980000D01*
X108380000Y-80180000D02*
X107186000Y-80180000D01*
X108380000Y-80020000D02*
X107158000Y-80020000D01*
X109757000Y-81781000D02*
X108683000Y-81781000D01*
X111282000Y-80020000D02*
X110060000Y-80020000D01*
X108380000Y-81181000D02*
X107704000Y-81181000D01*
X108380000Y-80901000D02*
X107485000Y-80901000D01*
X111254000Y-80180000D02*
X110060000Y-80180000D01*
X109884000Y-81741000D02*
X108556000Y-81741000D01*
X111174000Y-80461000D02*
X110060000Y-80461000D01*
X108380000Y-80581000D02*
X107313000Y-80581000D01*
X108380000Y-80340000D02*
X107226000Y-80340000D01*
X108380000Y-80821000D02*
X107435000Y-80821000D01*
X111236000Y-80260000D02*
X110060000Y-80260000D01*
X108380000Y-81261000D02*
X107782000Y-81261000D01*
X111300000Y-79740000D02*
X107140000Y-79740000D01*
X108380000Y-81141000D02*
X107668000Y-81141000D01*
X108380000Y-81541000D02*
X108140000Y-81541000D01*
X110474000Y-81421000D02*
X110060000Y-81421000D01*
X108380000Y-80100000D02*
X107170000Y-80100000D01*
X109590000Y-81821000D02*
X108850000Y-81821000D01*
X111294000Y-79900000D02*
X107146000Y-79900000D01*
X108380000Y-80501000D02*
X107280000Y-80501000D01*
X110160000Y-81621000D02*
X108280000Y-81621000D01*
X111287000Y-79980000D02*
X110060000Y-79980000D01*
X110658000Y-81261000D02*
X110060000Y-81261000D01*
X108380000Y-80260000D02*
X107204000Y-80260000D01*
X111300000Y-79780000D02*
X107140000Y-79780000D01*
X108380000Y-81341000D02*
X107869000Y-81341000D01*
X108380000Y-81101000D02*
X107633000Y-81101000D01*
X110736000Y-81181000D02*
X110060000Y-81181000D01*
X108380000Y-80541000D02*
X107296000Y-80541000D01*
X111276000Y-80060000D02*
X110060000Y-80060000D01*
X110900000Y-80981000D02*
X110060000Y-80981000D01*
X111291000Y-79940000D02*
X110060000Y-79940000D01*
X111160000Y-80501000D02*
X110060000Y-80501000D01*
X108380000Y-80420000D02*
X107252000Y-80420000D01*
X110698000Y-81221000D02*
X110060000Y-81221000D01*
X110079000Y-81661000D02*
X108361000Y-81661000D01*
X110300000Y-81541000D02*
X110060000Y-81541000D01*
X111270000Y-80100000D02*
X110060000Y-80100000D01*
X108380000Y-81421000D02*
X107966000Y-81421000D01*
X111127000Y-80581000D02*
X110060000Y-80581000D01*
X111340000Y-79740000D02*
G75*
G03*
X111340000Y-79740000I-2120000J0D01*
G01*
%TO.C,C2*%
X101370000Y-136181000D02*
X97761000Y-136181000D01*
X95279000Y-137061000D02*
X92037000Y-137061000D01*
X100477000Y-137861000D02*
X97761000Y-137861000D01*
X99099000Y-139061000D02*
X93941000Y-139061000D01*
X101510000Y-135621000D02*
X91530000Y-135621000D01*
X100081000Y-138301000D02*
X97761000Y-138301000D01*
X99895000Y-129680354D02*
X98895000Y-129680354D01*
X101600000Y-134700000D02*
X91440000Y-134700000D01*
X98030000Y-139541000D02*
X95010000Y-139541000D01*
X95279000Y-136421000D02*
X91752000Y-136421000D01*
X100767000Y-137461000D02*
X97761000Y-137461000D01*
X95279000Y-138061000D02*
X92731000Y-138061000D01*
X95279000Y-136861000D02*
X91936000Y-136861000D01*
X100236000Y-138141000D02*
X97761000Y-138141000D01*
X97582000Y-139661000D02*
X95458000Y-139661000D01*
X101494000Y-135701000D02*
X91546000Y-135701000D01*
X95279000Y-136221000D02*
X91683000Y-136221000D01*
X101582000Y-135100000D02*
X91458000Y-135100000D01*
X100793000Y-137421000D02*
X97761000Y-137421000D01*
X100570000Y-137741000D02*
X97761000Y-137741000D01*
X101560000Y-135300000D02*
X91480000Y-135300000D01*
X95279000Y-137661000D02*
X92410000Y-137661000D01*
X95279000Y-137141000D02*
X92080000Y-137141000D01*
X101243000Y-136541000D02*
X97761000Y-136541000D01*
X99520000Y-138781000D02*
X93520000Y-138781000D01*
X95279000Y-137341000D02*
X92197000Y-137341000D01*
X99290000Y-138941000D02*
X93750000Y-138941000D01*
X101448000Y-135901000D02*
X91592000Y-135901000D01*
X97382000Y-139701000D02*
X95658000Y-139701000D01*
X100843000Y-137341000D02*
X97761000Y-137341000D01*
X101538000Y-135461000D02*
X91502000Y-135461000D01*
X99409000Y-138861000D02*
X93631000Y-138861000D01*
X99229000Y-138981000D02*
X93811000Y-138981000D01*
X95279000Y-136181000D02*
X91670000Y-136181000D01*
X101467000Y-135821000D02*
X91573000Y-135821000D01*
X99676000Y-138661000D02*
X93364000Y-138661000D01*
X101382000Y-136141000D02*
X97761000Y-136141000D01*
X99350000Y-138901000D02*
X93690000Y-138901000D01*
X95279000Y-135981000D02*
X91613000Y-135981000D01*
X101317000Y-136341000D02*
X97761000Y-136341000D01*
X95279000Y-135941000D02*
X91602000Y-135941000D01*
X101599000Y-134780000D02*
X91441000Y-134780000D01*
X95279000Y-137861000D02*
X92563000Y-137861000D01*
X101288000Y-136421000D02*
X97761000Y-136421000D01*
X101084000Y-136901000D02*
X97761000Y-136901000D01*
X95279000Y-136501000D02*
X91782000Y-136501000D01*
X101405000Y-136061000D02*
X97761000Y-136061000D01*
X95279000Y-137701000D02*
X92440000Y-137701000D01*
X100686000Y-137581000D02*
X97761000Y-137581000D01*
X99165000Y-139021000D02*
X93875000Y-139021000D01*
X95279000Y-136381000D02*
X91737000Y-136381000D01*
X101458000Y-135861000D02*
X91582000Y-135861000D01*
X101595000Y-134900000D02*
X91445000Y-134900000D01*
X99821000Y-138541000D02*
X93219000Y-138541000D01*
X101227000Y-136581000D02*
X97761000Y-136581000D01*
X98464000Y-139381000D02*
X94576000Y-139381000D01*
X95279000Y-136781000D02*
X91899000Y-136781000D01*
X95279000Y-137261000D02*
X92149000Y-137261000D01*
X101427000Y-135981000D02*
X97761000Y-135981000D01*
X101045000Y-136981000D02*
X97761000Y-136981000D01*
X100412000Y-137941000D02*
X97761000Y-137941000D01*
X95279000Y-137741000D02*
X92470000Y-137741000D01*
X99465000Y-138821000D02*
X93575000Y-138821000D01*
X95279000Y-136301000D02*
X91709000Y-136301000D01*
X95279000Y-137981000D02*
X92662000Y-137981000D01*
X101258000Y-136501000D02*
X97761000Y-136501000D01*
X101531000Y-135501000D02*
X91509000Y-135501000D01*
X100937000Y-137181000D02*
X97761000Y-137181000D01*
X101517000Y-135581000D02*
X91523000Y-135581000D01*
X99030000Y-139101000D02*
X94010000Y-139101000D01*
X95279000Y-136101000D02*
X91646000Y-136101000D01*
X95279000Y-137781000D02*
X92500000Y-137781000D01*
X95279000Y-137581000D02*
X92354000Y-137581000D01*
X101555000Y-135340000D02*
X91485000Y-135340000D01*
X95279000Y-138341000D02*
X93000000Y-138341000D01*
X100867000Y-137301000D02*
X97761000Y-137301000D01*
X100309000Y-138061000D02*
X97761000Y-138061000D01*
X95279000Y-137101000D02*
X92058000Y-137101000D01*
X100344000Y-138021000D02*
X97761000Y-138021000D01*
X101123000Y-136821000D02*
X97761000Y-136821000D01*
X100509000Y-137821000D02*
X97761000Y-137821000D01*
X100741000Y-137501000D02*
X97761000Y-137501000D01*
X99774000Y-138581000D02*
X93266000Y-138581000D01*
X95279000Y-136261000D02*
X91696000Y-136261000D01*
X95279000Y-136581000D02*
X91813000Y-136581000D01*
X98366000Y-139421000D02*
X94674000Y-139421000D01*
X99956000Y-138421000D02*
X93084000Y-138421000D01*
X101357000Y-136221000D02*
X97761000Y-136221000D01*
X101600000Y-134660000D02*
X91440000Y-134660000D01*
X95279000Y-137941000D02*
X92628000Y-137941000D01*
X101394000Y-136101000D02*
X97761000Y-136101000D01*
X101585000Y-135060000D02*
X91455000Y-135060000D01*
X101550000Y-135381000D02*
X91490000Y-135381000D01*
X95279000Y-138381000D02*
X93042000Y-138381000D01*
X100714000Y-137541000D02*
X97761000Y-137541000D01*
X101588000Y-135020000D02*
X91452000Y-135020000D01*
X100160000Y-138221000D02*
X97761000Y-138221000D01*
X95279000Y-136661000D02*
X91846000Y-136661000D01*
X98729000Y-139261000D02*
X94311000Y-139261000D01*
X95279000Y-138301000D02*
X92959000Y-138301000D01*
X101544000Y-135421000D02*
X91496000Y-135421000D01*
X98150000Y-139501000D02*
X94890000Y-139501000D01*
X101598000Y-134820000D02*
X91442000Y-134820000D01*
X95279000Y-137181000D02*
X92103000Y-137181000D01*
X95279000Y-136141000D02*
X91658000Y-136141000D01*
X98959000Y-139141000D02*
X94081000Y-139141000D01*
X101565000Y-135260000D02*
X91475000Y-135260000D01*
X101104000Y-136861000D02*
X97761000Y-136861000D01*
X99912000Y-138461000D02*
X93128000Y-138461000D01*
X100378000Y-137981000D02*
X97761000Y-137981000D01*
X100982000Y-137101000D02*
X97761000Y-137101000D01*
X95279000Y-136621000D02*
X91830000Y-136621000D01*
X95279000Y-137621000D02*
X92382000Y-137621000D01*
X95279000Y-136461000D02*
X91766000Y-136461000D01*
X99395000Y-129180354D02*
X99395000Y-130180354D01*
X95279000Y-138021000D02*
X92696000Y-138021000D01*
X98262000Y-139461000D02*
X94778000Y-139461000D01*
X95279000Y-138261000D02*
X92919000Y-138261000D01*
X100960000Y-137141000D02*
X97761000Y-137141000D01*
X100273000Y-138101000D02*
X97761000Y-138101000D01*
X100630000Y-137661000D02*
X97761000Y-137661000D01*
X101194000Y-136661000D02*
X97761000Y-136661000D01*
X101597000Y-134860000D02*
X91443000Y-134860000D01*
X95279000Y-136701000D02*
X91863000Y-136701000D01*
X99998000Y-138381000D02*
X97761000Y-138381000D01*
X95279000Y-136541000D02*
X91797000Y-136541000D01*
X100818000Y-137381000D02*
X97761000Y-137381000D01*
X97119000Y-139741000D02*
X95921000Y-139741000D01*
X95279000Y-136061000D02*
X91635000Y-136061000D01*
X101417000Y-136021000D02*
X97761000Y-136021000D01*
X101331000Y-136301000D02*
X97761000Y-136301000D01*
X101344000Y-136261000D02*
X97761000Y-136261000D01*
X99867000Y-138501000D02*
X93173000Y-138501000D01*
X101024000Y-137021000D02*
X97761000Y-137021000D01*
X101303000Y-136381000D02*
X97761000Y-136381000D01*
X95279000Y-137501000D02*
X92299000Y-137501000D01*
X95279000Y-137461000D02*
X92273000Y-137461000D01*
X95279000Y-138101000D02*
X92767000Y-138101000D01*
X101003000Y-137061000D02*
X97761000Y-137061000D01*
X101065000Y-136941000D02*
X97761000Y-136941000D01*
X95279000Y-137541000D02*
X92326000Y-137541000D01*
X101485000Y-135741000D02*
X91555000Y-135741000D01*
X95279000Y-136821000D02*
X91917000Y-136821000D01*
X101274000Y-136461000D02*
X97761000Y-136461000D01*
X100540000Y-137781000D02*
X97761000Y-137781000D01*
X95279000Y-136981000D02*
X91995000Y-136981000D01*
X101141000Y-136781000D02*
X97761000Y-136781000D01*
X95279000Y-137421000D02*
X92247000Y-137421000D01*
X100121000Y-138261000D02*
X97761000Y-138261000D01*
X95279000Y-136341000D02*
X91723000Y-136341000D01*
X101590000Y-134980000D02*
X91450000Y-134980000D01*
X100040000Y-138341000D02*
X97761000Y-138341000D01*
X95279000Y-137021000D02*
X92016000Y-137021000D01*
X100658000Y-137621000D02*
X97761000Y-137621000D01*
X101159000Y-136741000D02*
X97761000Y-136741000D01*
X98557000Y-139341000D02*
X94483000Y-139341000D01*
X101593000Y-134940000D02*
X91447000Y-134940000D01*
X97750000Y-139621000D02*
X95290000Y-139621000D01*
X97898000Y-139581000D02*
X95142000Y-139581000D01*
X100891000Y-137261000D02*
X97761000Y-137261000D01*
X95279000Y-137301000D02*
X92173000Y-137301000D01*
X95279000Y-137381000D02*
X92222000Y-137381000D01*
X95279000Y-138181000D02*
X92841000Y-138181000D01*
X101578000Y-135140000D02*
X91462000Y-135140000D01*
X101177000Y-136701000D02*
X97761000Y-136701000D01*
X95279000Y-136941000D02*
X91975000Y-136941000D01*
X101574000Y-135180000D02*
X91466000Y-135180000D01*
X100600000Y-137701000D02*
X97761000Y-137701000D01*
X98809000Y-139221000D02*
X94231000Y-139221000D01*
X99626000Y-138701000D02*
X93414000Y-138701000D01*
X101210000Y-136621000D02*
X97761000Y-136621000D01*
X99726000Y-138621000D02*
X93314000Y-138621000D01*
X99574000Y-138741000D02*
X93466000Y-138741000D01*
X95279000Y-136901000D02*
X91956000Y-136901000D01*
X101570000Y-135220000D02*
X91470000Y-135220000D01*
X95279000Y-137901000D02*
X92595000Y-137901000D01*
X95279000Y-138141000D02*
X92804000Y-138141000D01*
X95279000Y-138221000D02*
X92880000Y-138221000D01*
X98885000Y-139181000D02*
X94155000Y-139181000D01*
X101600000Y-134740000D02*
X91440000Y-134740000D01*
X101438000Y-135941000D02*
X97761000Y-135941000D01*
X98645000Y-139301000D02*
X94395000Y-139301000D01*
X101524000Y-135541000D02*
X91516000Y-135541000D01*
X95279000Y-136021000D02*
X91623000Y-136021000D01*
X95279000Y-137821000D02*
X92531000Y-137821000D01*
X100445000Y-137901000D02*
X97761000Y-137901000D01*
X101502000Y-135661000D02*
X91538000Y-135661000D01*
X100199000Y-138181000D02*
X97761000Y-138181000D01*
X100915000Y-137221000D02*
X97761000Y-137221000D01*
X95279000Y-137221000D02*
X92125000Y-137221000D01*
X95279000Y-136741000D02*
X91881000Y-136741000D01*
X101476000Y-135781000D02*
X91564000Y-135781000D01*
X101640000Y-134660000D02*
G75*
G03*
X101640000Y-134660000I-5120000J0D01*
G01*
%TO.C,J1*%
X94952500Y-105155000D02*
X94352500Y-104855000D01*
X81932500Y-101245000D02*
X81932500Y-118465000D01*
X83432500Y-118465000D02*
X83432500Y-101245000D01*
X81932500Y-115855000D02*
X83432500Y-115605000D01*
X83432500Y-115605000D02*
X83432500Y-114105000D01*
X83432500Y-105605000D02*
X83432500Y-104105000D01*
X83432500Y-101245000D02*
X85232500Y-101245000D01*
X94952500Y-104555000D02*
X94952500Y-105155000D01*
X85232500Y-101245000D02*
X85232500Y-118465000D01*
X81932500Y-105855000D02*
X83432500Y-105605000D01*
X81932500Y-108855000D02*
X81932500Y-110855000D01*
X94352500Y-104855000D02*
X94952500Y-104555000D01*
X81932500Y-118465000D02*
X94152500Y-118465000D01*
X81932500Y-113855000D02*
X81932500Y-115855000D01*
X81932500Y-103855000D02*
X81932500Y-105855000D01*
X94152500Y-118465000D02*
X94152500Y-101245000D01*
X83432500Y-110605000D02*
X83432500Y-109105000D01*
X85232500Y-118465000D02*
X83432500Y-118465000D01*
X94152500Y-101245000D02*
X81932500Y-101245000D01*
X83432500Y-109105000D02*
X81932500Y-108855000D01*
X83432500Y-114105000D02*
X81932500Y-113855000D01*
X81932500Y-110855000D02*
X83432500Y-110605000D01*
X83432500Y-104105000D02*
X81932500Y-103855000D01*
%TO.C,J4*%
X166832500Y-96205000D02*
X166832500Y-118425000D01*
X179052500Y-100815000D02*
X179052500Y-98815000D01*
X179052500Y-96205000D02*
X166832500Y-96205000D01*
X177552500Y-109065000D02*
X177552500Y-110565000D01*
X177552500Y-115565000D02*
X179052500Y-115815000D01*
X179052500Y-110815000D02*
X179052500Y-108815000D01*
X179052500Y-115815000D02*
X179052500Y-113815000D01*
X177552500Y-110565000D02*
X179052500Y-110815000D01*
X175752500Y-118425000D02*
X175752500Y-96205000D01*
X179052500Y-108815000D02*
X177552500Y-109065000D01*
X175752500Y-96205000D02*
X177552500Y-96205000D01*
X179052500Y-118425000D02*
X179052500Y-96205000D01*
X177552500Y-99065000D02*
X177552500Y-100565000D01*
X179052500Y-98815000D02*
X177552500Y-99065000D01*
X179052500Y-105815000D02*
X179052500Y-103815000D01*
X177552500Y-96205000D02*
X177552500Y-118425000D01*
X177552500Y-105565000D02*
X179052500Y-105815000D01*
X166832500Y-118425000D02*
X179052500Y-118425000D01*
X179052500Y-103815000D02*
X177552500Y-104065000D01*
X166032500Y-115115000D02*
X166032500Y-114515000D01*
X166032500Y-114515000D02*
X166632500Y-114815000D01*
X177552500Y-114065000D02*
X177552500Y-115565000D01*
X177552500Y-104065000D02*
X177552500Y-105565000D01*
X166632500Y-114815000D02*
X166032500Y-115115000D01*
X177552500Y-118425000D02*
X175752500Y-118425000D01*
X179052500Y-113815000D02*
X177552500Y-114065000D01*
X177552500Y-100565000D02*
X179052500Y-100815000D01*
%TO.C,C4*%
X111214000Y-136220000D02*
X110060000Y-136220000D01*
X108380000Y-136581000D02*
X107369000Y-136581000D01*
X111127000Y-136461000D02*
X110060000Y-136461000D01*
X108380000Y-136701000D02*
X107435000Y-136701000D01*
X110079000Y-137541000D02*
X108361000Y-137541000D01*
X111282000Y-135900000D02*
X110060000Y-135900000D01*
X110772000Y-137021000D02*
X110060000Y-137021000D01*
X108380000Y-136220000D02*
X107226000Y-136220000D01*
X110571000Y-137221000D02*
X110060000Y-137221000D01*
X108380000Y-137301000D02*
X107966000Y-137301000D01*
X111300000Y-135660000D02*
X107140000Y-135660000D01*
X110415000Y-133350199D02*
X110415000Y-133750199D01*
X111276000Y-135940000D02*
X110060000Y-135940000D01*
X111299000Y-135700000D02*
X107141000Y-135700000D01*
X108380000Y-135860000D02*
X107153000Y-135860000D01*
X111174000Y-136341000D02*
X110060000Y-136341000D01*
X108380000Y-136100000D02*
X107195000Y-136100000D01*
X111287000Y-135860000D02*
X110060000Y-135860000D01*
X111160000Y-136381000D02*
X110060000Y-136381000D01*
X111291000Y-135820000D02*
X110060000Y-135820000D01*
X108380000Y-137261000D02*
X107916000Y-137261000D01*
X108380000Y-137141000D02*
X107782000Y-137141000D01*
X108380000Y-136541000D02*
X107350000Y-136541000D01*
X110300000Y-137421000D02*
X110060000Y-137421000D01*
X110616000Y-137181000D02*
X110060000Y-137181000D01*
X110807000Y-136981000D02*
X110060000Y-136981000D01*
X109988000Y-137581000D02*
X108452000Y-137581000D01*
X111090000Y-136541000D02*
X110060000Y-136541000D01*
X110615000Y-133550199D02*
X110215000Y-133550199D01*
X108380000Y-137101000D02*
X107742000Y-137101000D01*
X110955000Y-136781000D02*
X110060000Y-136781000D01*
X111270000Y-135980000D02*
X110060000Y-135980000D01*
X111300000Y-135620000D02*
X107140000Y-135620000D01*
X109590000Y-137701000D02*
X108850000Y-137701000D01*
X108380000Y-136461000D02*
X107313000Y-136461000D01*
X111028000Y-136661000D02*
X110060000Y-136661000D01*
X110474000Y-137301000D02*
X110060000Y-137301000D01*
X108380000Y-136621000D02*
X107390000Y-136621000D01*
X108380000Y-135980000D02*
X107170000Y-135980000D01*
X108380000Y-137221000D02*
X107869000Y-137221000D01*
X108380000Y-136140000D02*
X107204000Y-136140000D01*
X110900000Y-136861000D02*
X110060000Y-136861000D01*
X108380000Y-136300000D02*
X107252000Y-136300000D01*
X111109000Y-136501000D02*
X110060000Y-136501000D01*
X108380000Y-136741000D02*
X107460000Y-136741000D01*
X111236000Y-136140000D02*
X110060000Y-136140000D01*
X108380000Y-136661000D02*
X107412000Y-136661000D01*
X110928000Y-136821000D02*
X110060000Y-136821000D01*
X110839000Y-136941000D02*
X110060000Y-136941000D01*
X108380000Y-136180000D02*
X107215000Y-136180000D01*
X111294000Y-135780000D02*
X107146000Y-135780000D01*
X108380000Y-135820000D02*
X107149000Y-135820000D01*
X108380000Y-136941000D02*
X107601000Y-136941000D01*
X110233000Y-137461000D02*
X108207000Y-137461000D01*
X110160000Y-137501000D02*
X108280000Y-137501000D01*
X108380000Y-137421000D02*
X108140000Y-137421000D01*
X110698000Y-137101000D02*
X110060000Y-137101000D01*
X108380000Y-137341000D02*
X108020000Y-137341000D01*
X108380000Y-136060000D02*
X107186000Y-136060000D01*
X111188000Y-136300000D02*
X110060000Y-136300000D01*
X108380000Y-136341000D02*
X107266000Y-136341000D01*
X111005000Y-136701000D02*
X110060000Y-136701000D01*
X111202000Y-136260000D02*
X110060000Y-136260000D01*
X109757000Y-137661000D02*
X108683000Y-137661000D01*
X108380000Y-137061000D02*
X107704000Y-137061000D01*
X111144000Y-136421000D02*
X110060000Y-136421000D01*
X110420000Y-137341000D02*
X110060000Y-137341000D01*
X110870000Y-136901000D02*
X110060000Y-136901000D01*
X108380000Y-136260000D02*
X107238000Y-136260000D01*
X108380000Y-136421000D02*
X107296000Y-136421000D01*
X111254000Y-136060000D02*
X110060000Y-136060000D01*
X109884000Y-137621000D02*
X108556000Y-137621000D01*
X111050000Y-136621000D02*
X110060000Y-136621000D01*
X108380000Y-137021000D02*
X107668000Y-137021000D01*
X110658000Y-137141000D02*
X110060000Y-137141000D01*
X108380000Y-135940000D02*
X107164000Y-135940000D01*
X108380000Y-136861000D02*
X107540000Y-136861000D01*
X108380000Y-136501000D02*
X107331000Y-136501000D01*
X108380000Y-136020000D02*
X107178000Y-136020000D01*
X108380000Y-136901000D02*
X107570000Y-136901000D01*
X110362000Y-137381000D02*
X110060000Y-137381000D01*
X108380000Y-136781000D02*
X107485000Y-136781000D01*
X108380000Y-136981000D02*
X107633000Y-136981000D01*
X108380000Y-136381000D02*
X107280000Y-136381000D01*
X111225000Y-136180000D02*
X110060000Y-136180000D01*
X108380000Y-137181000D02*
X107824000Y-137181000D01*
X111245000Y-136100000D02*
X110060000Y-136100000D01*
X108380000Y-136821000D02*
X107512000Y-136821000D01*
X111071000Y-136581000D02*
X110060000Y-136581000D01*
X111262000Y-136020000D02*
X110060000Y-136020000D01*
X108380000Y-135900000D02*
X107158000Y-135900000D01*
X110524000Y-137261000D02*
X110060000Y-137261000D01*
X110980000Y-136741000D02*
X110060000Y-136741000D01*
X110736000Y-137061000D02*
X110060000Y-137061000D01*
X108380000Y-137381000D02*
X108078000Y-137381000D01*
X111297000Y-135740000D02*
X107143000Y-135740000D01*
X111340000Y-135620000D02*
G75*
G03*
X111340000Y-135620000I-2120000J0D01*
G01*
%TO.C,U2*%
X132810000Y-139011000D02*
X131300000Y-139011000D01*
X128169000Y-132040000D02*
X128169000Y-142280000D01*
X132810000Y-142280000D02*
X128169000Y-142280000D01*
X131300000Y-132040000D02*
X131300000Y-142280000D01*
X132810000Y-135310000D02*
X131300000Y-135310000D01*
X132810000Y-132040000D02*
X128169000Y-132040000D01*
X132810000Y-132040000D02*
X132810000Y-142280000D01*
%TO.C,C1*%
X100937000Y-83761000D02*
X97761000Y-83761000D01*
X95279000Y-84801000D02*
X92880000Y-84801000D01*
X95279000Y-83721000D02*
X92080000Y-83721000D01*
X95279000Y-84881000D02*
X92959000Y-84881000D01*
X99895000Y-76260354D02*
X98895000Y-76260354D01*
X97750000Y-86201000D02*
X95290000Y-86201000D01*
X95279000Y-82841000D02*
X91696000Y-82841000D01*
X99774000Y-85161000D02*
X93266000Y-85161000D01*
X95279000Y-84721000D02*
X92804000Y-84721000D01*
X100658000Y-84201000D02*
X97761000Y-84201000D01*
X101159000Y-83321000D02*
X97761000Y-83321000D01*
X95279000Y-84121000D02*
X92326000Y-84121000D01*
X95279000Y-83281000D02*
X91863000Y-83281000D01*
X98809000Y-85801000D02*
X94231000Y-85801000D01*
X101317000Y-82921000D02*
X97761000Y-82921000D01*
X100818000Y-83961000D02*
X97761000Y-83961000D01*
X99574000Y-85321000D02*
X93466000Y-85321000D01*
X95279000Y-84361000D02*
X92500000Y-84361000D01*
X100160000Y-84801000D02*
X97761000Y-84801000D01*
X101194000Y-83241000D02*
X97761000Y-83241000D01*
X95279000Y-83241000D02*
X91846000Y-83241000D01*
X101485000Y-82321000D02*
X91555000Y-82321000D01*
X95279000Y-84281000D02*
X92440000Y-84281000D01*
X95279000Y-82961000D02*
X91737000Y-82961000D01*
X95279000Y-83121000D02*
X91797000Y-83121000D01*
X95279000Y-83961000D02*
X92222000Y-83961000D01*
X100273000Y-84681000D02*
X97761000Y-84681000D01*
X98030000Y-86121000D02*
X95010000Y-86121000D01*
X100793000Y-84001000D02*
X97761000Y-84001000D01*
X100630000Y-84241000D02*
X97761000Y-84241000D01*
X99165000Y-85601000D02*
X93875000Y-85601000D01*
X101438000Y-82521000D02*
X97761000Y-82521000D01*
X101177000Y-83281000D02*
X97761000Y-83281000D01*
X95279000Y-82601000D02*
X91623000Y-82601000D01*
X101524000Y-82121000D02*
X91516000Y-82121000D01*
X100081000Y-84881000D02*
X97761000Y-84881000D01*
X95279000Y-83601000D02*
X92016000Y-83601000D01*
X101585000Y-81640000D02*
X91455000Y-81640000D01*
X100915000Y-83801000D02*
X97761000Y-83801000D01*
X95279000Y-83761000D02*
X92103000Y-83761000D01*
X101274000Y-83041000D02*
X97761000Y-83041000D01*
X101560000Y-81880000D02*
X91480000Y-81880000D01*
X100199000Y-84761000D02*
X97761000Y-84761000D01*
X101590000Y-81560000D02*
X91450000Y-81560000D01*
X97382000Y-86281000D02*
X95658000Y-86281000D01*
X101555000Y-81920000D02*
X91485000Y-81920000D01*
X95279000Y-83681000D02*
X92058000Y-83681000D01*
X100767000Y-84041000D02*
X97761000Y-84041000D01*
X101531000Y-82081000D02*
X91509000Y-82081000D01*
X101258000Y-83081000D02*
X97761000Y-83081000D01*
X95279000Y-82641000D02*
X91635000Y-82641000D01*
X101598000Y-81400000D02*
X91442000Y-81400000D01*
X101458000Y-82441000D02*
X91582000Y-82441000D01*
X95279000Y-84841000D02*
X92919000Y-84841000D01*
X98366000Y-86001000D02*
X94674000Y-86001000D01*
X100412000Y-84521000D02*
X97761000Y-84521000D01*
X101600000Y-81240000D02*
X91440000Y-81240000D01*
X95279000Y-84481000D02*
X92595000Y-84481000D01*
X101141000Y-83361000D02*
X97761000Y-83361000D01*
X101510000Y-82201000D02*
X91530000Y-82201000D01*
X100509000Y-84401000D02*
X97761000Y-84401000D01*
X101544000Y-82001000D02*
X91496000Y-82001000D01*
X99956000Y-85001000D02*
X93084000Y-85001000D01*
X101417000Y-82601000D02*
X97761000Y-82601000D01*
X95279000Y-84241000D02*
X92410000Y-84241000D01*
X101502000Y-82241000D02*
X91538000Y-82241000D01*
X101517000Y-82161000D02*
X91523000Y-82161000D01*
X98557000Y-85921000D02*
X94483000Y-85921000D01*
X95279000Y-84201000D02*
X92382000Y-84201000D01*
X95279000Y-83481000D02*
X91956000Y-83481000D01*
X100741000Y-84081000D02*
X97761000Y-84081000D01*
X95279000Y-84081000D02*
X92299000Y-84081000D01*
X95279000Y-82881000D02*
X91709000Y-82881000D01*
X98885000Y-85761000D02*
X94155000Y-85761000D01*
X101331000Y-82881000D02*
X97761000Y-82881000D01*
X95279000Y-84601000D02*
X92696000Y-84601000D01*
X99465000Y-85401000D02*
X93575000Y-85401000D01*
X101588000Y-81600000D02*
X91452000Y-81600000D01*
X95279000Y-83361000D02*
X91899000Y-83361000D01*
X100960000Y-83721000D02*
X97761000Y-83721000D01*
X95279000Y-83401000D02*
X91917000Y-83401000D01*
X98729000Y-85841000D02*
X94311000Y-85841000D01*
X100600000Y-84281000D02*
X97761000Y-84281000D01*
X101448000Y-82481000D02*
X91592000Y-82481000D01*
X101344000Y-82841000D02*
X97761000Y-82841000D01*
X95279000Y-84761000D02*
X92841000Y-84761000D01*
X98150000Y-86081000D02*
X94890000Y-86081000D01*
X100540000Y-84361000D02*
X97761000Y-84361000D01*
X100867000Y-83881000D02*
X97761000Y-83881000D01*
X99726000Y-85201000D02*
X93314000Y-85201000D01*
X95279000Y-82721000D02*
X91658000Y-82721000D01*
X97582000Y-86241000D02*
X95458000Y-86241000D01*
X101370000Y-82761000D02*
X97761000Y-82761000D01*
X100121000Y-84841000D02*
X97761000Y-84841000D01*
X98464000Y-85961000D02*
X94576000Y-85961000D01*
X95279000Y-82801000D02*
X91683000Y-82801000D01*
X95279000Y-83881000D02*
X92173000Y-83881000D01*
X101288000Y-83001000D02*
X97761000Y-83001000D01*
X99409000Y-85441000D02*
X93631000Y-85441000D01*
X101104000Y-83441000D02*
X97761000Y-83441000D01*
X95279000Y-84641000D02*
X92731000Y-84641000D01*
X100686000Y-84161000D02*
X97761000Y-84161000D01*
X101084000Y-83481000D02*
X97761000Y-83481000D01*
X99395000Y-75760354D02*
X99395000Y-76760354D01*
X98645000Y-85881000D02*
X94395000Y-85881000D01*
X97898000Y-86161000D02*
X95142000Y-86161000D01*
X101600000Y-81280000D02*
X91440000Y-81280000D01*
X100378000Y-84561000D02*
X97761000Y-84561000D01*
X95279000Y-83321000D02*
X91881000Y-83321000D01*
X95279000Y-84681000D02*
X92767000Y-84681000D01*
X101243000Y-83121000D02*
X97761000Y-83121000D01*
X95279000Y-83041000D02*
X91766000Y-83041000D01*
X101065000Y-83521000D02*
X97761000Y-83521000D01*
X95279000Y-84401000D02*
X92531000Y-84401000D01*
X100570000Y-84321000D02*
X97761000Y-84321000D01*
X99626000Y-85281000D02*
X93414000Y-85281000D01*
X101494000Y-82281000D02*
X91546000Y-82281000D01*
X98262000Y-86041000D02*
X94778000Y-86041000D01*
X101045000Y-83561000D02*
X97761000Y-83561000D01*
X95279000Y-83641000D02*
X92037000Y-83641000D01*
X100982000Y-83681000D02*
X97761000Y-83681000D01*
X99821000Y-85121000D02*
X93219000Y-85121000D01*
X101593000Y-81520000D02*
X91447000Y-81520000D01*
X100714000Y-84121000D02*
X97761000Y-84121000D01*
X101357000Y-82801000D02*
X97761000Y-82801000D01*
X101227000Y-83161000D02*
X97761000Y-83161000D01*
X95279000Y-84961000D02*
X93042000Y-84961000D01*
X101394000Y-82681000D02*
X97761000Y-82681000D01*
X101024000Y-83601000D02*
X97761000Y-83601000D01*
X99912000Y-85041000D02*
X93128000Y-85041000D01*
X99998000Y-84961000D02*
X97761000Y-84961000D01*
X101550000Y-81961000D02*
X91490000Y-81961000D01*
X101427000Y-82561000D02*
X97761000Y-82561000D01*
X99350000Y-85481000D02*
X93690000Y-85481000D01*
X95279000Y-83201000D02*
X91830000Y-83201000D01*
X100040000Y-84921000D02*
X97761000Y-84921000D01*
X100477000Y-84441000D02*
X97761000Y-84441000D01*
X99030000Y-85681000D02*
X94010000Y-85681000D01*
X95279000Y-84161000D02*
X92354000Y-84161000D01*
X95279000Y-83521000D02*
X91975000Y-83521000D01*
X100843000Y-83921000D02*
X97761000Y-83921000D01*
X95279000Y-82681000D02*
X91646000Y-82681000D01*
X95279000Y-84561000D02*
X92662000Y-84561000D01*
X99290000Y-85521000D02*
X93750000Y-85521000D01*
X95279000Y-82561000D02*
X91613000Y-82561000D01*
X100891000Y-83841000D02*
X97761000Y-83841000D01*
X101303000Y-82961000D02*
X97761000Y-82961000D01*
X95279000Y-82921000D02*
X91723000Y-82921000D01*
X101570000Y-81800000D02*
X91470000Y-81800000D01*
X97119000Y-86321000D02*
X95921000Y-86321000D01*
X101578000Y-81720000D02*
X91462000Y-81720000D01*
X101382000Y-82721000D02*
X97761000Y-82721000D01*
X101595000Y-81480000D02*
X91445000Y-81480000D01*
X95279000Y-83921000D02*
X92197000Y-83921000D01*
X95279000Y-83081000D02*
X91782000Y-83081000D01*
X98959000Y-85721000D02*
X94081000Y-85721000D01*
X95279000Y-82521000D02*
X91602000Y-82521000D01*
X99229000Y-85561000D02*
X93811000Y-85561000D01*
X101003000Y-83641000D02*
X97761000Y-83641000D01*
X101123000Y-83401000D02*
X97761000Y-83401000D01*
X95279000Y-84921000D02*
X93000000Y-84921000D01*
X101597000Y-81440000D02*
X91443000Y-81440000D01*
X101405000Y-82641000D02*
X97761000Y-82641000D01*
X101582000Y-81680000D02*
X91458000Y-81680000D01*
X100309000Y-84641000D02*
X97761000Y-84641000D01*
X95279000Y-82761000D02*
X91670000Y-82761000D01*
X95279000Y-84441000D02*
X92563000Y-84441000D01*
X100236000Y-84721000D02*
X97761000Y-84721000D01*
X100344000Y-84601000D02*
X97761000Y-84601000D01*
X99099000Y-85641000D02*
X93941000Y-85641000D01*
X95279000Y-83441000D02*
X91936000Y-83441000D01*
X100445000Y-84481000D02*
X97761000Y-84481000D01*
X101565000Y-81840000D02*
X91475000Y-81840000D01*
X95279000Y-83001000D02*
X91752000Y-83001000D01*
X101538000Y-82041000D02*
X91502000Y-82041000D01*
X95279000Y-83561000D02*
X91995000Y-83561000D01*
X99676000Y-85241000D02*
X93364000Y-85241000D01*
X99867000Y-85081000D02*
X93173000Y-85081000D01*
X95279000Y-84521000D02*
X92628000Y-84521000D01*
X99520000Y-85361000D02*
X93520000Y-85361000D01*
X95279000Y-83801000D02*
X92125000Y-83801000D01*
X101467000Y-82401000D02*
X91573000Y-82401000D01*
X101210000Y-83201000D02*
X97761000Y-83201000D01*
X95279000Y-83841000D02*
X92149000Y-83841000D01*
X95279000Y-84041000D02*
X92273000Y-84041000D01*
X95279000Y-84321000D02*
X92470000Y-84321000D01*
X95279000Y-84001000D02*
X92247000Y-84001000D01*
X101599000Y-81360000D02*
X91441000Y-81360000D01*
X101574000Y-81760000D02*
X91466000Y-81760000D01*
X101476000Y-82361000D02*
X91564000Y-82361000D01*
X101600000Y-81320000D02*
X91440000Y-81320000D01*
X95279000Y-83161000D02*
X91813000Y-83161000D01*
X101640000Y-81240000D02*
G75*
G03*
X101640000Y-81240000I-5120000J0D01*
G01*
%TO.C,C8*%
X176231000Y-131723621D02*
X174395000Y-131723621D01*
X172315000Y-132403621D02*
X170939000Y-132403621D01*
X173757000Y-133483621D02*
X172953000Y-133483621D01*
X172315000Y-131443621D02*
X170353000Y-131443621D01*
X175839000Y-132323621D02*
X174395000Y-132323621D01*
X176573000Y-130522621D02*
X174395000Y-130522621D01*
X172315000Y-131803621D02*
X170521000Y-131803621D01*
X173988000Y-133443621D02*
X172722000Y-133443621D01*
X172315000Y-130762621D02*
X170166000Y-130762621D01*
X176561000Y-130642621D02*
X174395000Y-130642621D01*
X172315000Y-130642621D02*
X170149000Y-130642621D01*
X176579000Y-130442621D02*
X170131000Y-130442621D01*
X174157000Y-133403621D02*
X172553000Y-133403621D01*
X176465000Y-131123621D02*
X174395000Y-131123621D01*
X176271000Y-131643621D02*
X174395000Y-131643621D01*
X172315000Y-132243621D02*
X170807000Y-132243621D01*
X172315000Y-132523621D02*
X171050000Y-132523621D01*
X172315000Y-130482621D02*
X170133000Y-130482621D01*
X175537000Y-132643621D02*
X171173000Y-132643621D01*
X172315000Y-132363621D02*
X170905000Y-132363621D01*
X172315000Y-130842621D02*
X170180000Y-130842621D01*
X176071000Y-132003621D02*
X174395000Y-132003621D01*
X172315000Y-132323621D02*
X170871000Y-132323621D01*
X172315000Y-132443621D02*
X170975000Y-132443621D01*
X175447000Y-132723621D02*
X171263000Y-132723621D01*
X176211000Y-131763621D02*
X174395000Y-131763621D01*
X175005000Y-133043621D02*
X171705000Y-133043621D01*
X176325000Y-131523621D02*
X174395000Y-131523621D01*
X175350000Y-132803621D02*
X171360000Y-132803621D01*
X174936000Y-133083621D02*
X171774000Y-133083621D01*
X175620000Y-132563621D02*
X171090000Y-132563621D01*
X172315000Y-132203621D02*
X170777000Y-132203621D01*
X174295000Y-133363621D02*
X172415000Y-133363621D01*
X176189000Y-131803621D02*
X174395000Y-131803621D01*
X174414000Y-133323621D02*
X172296000Y-133323621D01*
X172315000Y-132483621D02*
X171012000Y-132483621D01*
X176307000Y-131563621D02*
X174395000Y-131563621D01*
X175805000Y-132363621D02*
X174395000Y-132363621D01*
X172315000Y-131483621D02*
X170369000Y-131483621D01*
X176453000Y-131163621D02*
X174395000Y-131163621D01*
X176441000Y-131203621D02*
X174395000Y-131203621D01*
X172315000Y-132283621D02*
X170839000Y-132283621D01*
X176530000Y-130842621D02*
X174395000Y-130842621D01*
X176416000Y-131283621D02*
X174395000Y-131283621D01*
X176556000Y-130682621D02*
X174395000Y-130682621D01*
X176429000Y-131243621D02*
X174395000Y-131243621D01*
X175962000Y-132163621D02*
X174395000Y-132163621D01*
X172315000Y-131003621D02*
X170214000Y-131003621D01*
X175069000Y-133003621D02*
X171641000Y-133003621D01*
X172315000Y-131163621D02*
X170257000Y-131163621D01*
X172315000Y-131643621D02*
X170439000Y-131643621D01*
X172315000Y-131523621D02*
X170385000Y-131523621D01*
X175771000Y-132403621D02*
X174395000Y-132403621D01*
X172315000Y-131323621D02*
X170308000Y-131323621D01*
X176583000Y-130362621D02*
X170127000Y-130362621D01*
X174864000Y-133123621D02*
X171846000Y-133123621D01*
X176097000Y-131963621D02*
X174395000Y-131963621D01*
X175933000Y-132203621D02*
X174395000Y-132203621D01*
X176537000Y-130802621D02*
X174395000Y-130802621D01*
X176145000Y-131883621D02*
X174395000Y-131883621D01*
X175698000Y-132483621D02*
X174395000Y-132483621D01*
X176514000Y-130922621D02*
X174395000Y-130922621D01*
X176550000Y-130722621D02*
X174395000Y-130722621D01*
X175509000Y-127057380D02*
X174879000Y-127057380D01*
X172315000Y-131883621D02*
X170565000Y-131883621D01*
X176167000Y-131843621D02*
X174395000Y-131843621D01*
X176505000Y-130963621D02*
X174395000Y-130963621D01*
X175189000Y-132923621D02*
X171521000Y-132923621D01*
X172315000Y-132043621D02*
X170665000Y-132043621D01*
X172315000Y-131083621D02*
X170234000Y-131083621D01*
X172315000Y-131203621D02*
X170269000Y-131203621D01*
X172315000Y-131243621D02*
X170281000Y-131243621D01*
X172315000Y-130922621D02*
X170196000Y-130922621D01*
X176585000Y-130322621D02*
X170125000Y-130322621D01*
X172315000Y-130682621D02*
X170154000Y-130682621D01*
X176121000Y-131923621D02*
X174395000Y-131923621D01*
X172315000Y-132163621D02*
X170748000Y-132163621D01*
X176582000Y-130402621D02*
X170128000Y-130402621D01*
X172315000Y-132123621D02*
X170719000Y-132123621D01*
X176357000Y-131443621D02*
X174395000Y-131443621D01*
X172315000Y-132003621D02*
X170639000Y-132003621D01*
X172315000Y-131723621D02*
X170479000Y-131723621D01*
X175194000Y-126742380D02*
X175194000Y-127372380D01*
X172315000Y-131763621D02*
X170499000Y-131763621D01*
X172315000Y-131403621D02*
X170337000Y-131403621D01*
X176544000Y-130762621D02*
X174395000Y-130762621D01*
X175871000Y-132283621D02*
X174395000Y-132283621D01*
X176585000Y-130242621D02*
X170125000Y-130242621D01*
X172315000Y-130562621D02*
X170140000Y-130562621D01*
X172315000Y-130602621D02*
X170144000Y-130602621D01*
X175131000Y-132963621D02*
X171579000Y-132963621D01*
X176570000Y-130562621D02*
X174395000Y-130562621D01*
X176045000Y-132043621D02*
X174395000Y-132043621D01*
X174787000Y-133163621D02*
X171923000Y-133163621D01*
X176251000Y-131683621D02*
X174395000Y-131683621D01*
X176402000Y-131323621D02*
X174395000Y-131323621D01*
X175660000Y-132523621D02*
X174395000Y-132523621D01*
X172315000Y-131563621D02*
X170403000Y-131563621D01*
X172315000Y-131123621D02*
X170245000Y-131123621D01*
X172315000Y-130802621D02*
X170173000Y-130802621D01*
X176585000Y-130282621D02*
X170125000Y-130282621D01*
X176341000Y-131483621D02*
X174395000Y-131483621D01*
X175903000Y-132243621D02*
X174395000Y-132243621D01*
X176289000Y-131603621D02*
X174395000Y-131603621D01*
X172315000Y-131963621D02*
X170613000Y-131963621D01*
X176577000Y-130482621D02*
X174395000Y-130482621D01*
X176486000Y-131043621D02*
X174395000Y-131043621D01*
X175399000Y-132763621D02*
X171311000Y-132763621D01*
X172315000Y-130963621D02*
X170205000Y-130963621D01*
X172315000Y-131843621D02*
X170543000Y-131843621D01*
X172315000Y-131923621D02*
X170589000Y-131923621D01*
X172315000Y-131043621D02*
X170224000Y-131043621D01*
X172315000Y-131363621D02*
X170322000Y-131363621D01*
X176476000Y-131083621D02*
X174395000Y-131083621D01*
X176019000Y-132083621D02*
X174395000Y-132083621D01*
X175245000Y-132883621D02*
X171465000Y-132883621D01*
X176566000Y-130602621D02*
X174395000Y-130602621D01*
X175579000Y-132603621D02*
X171131000Y-132603621D01*
X175299000Y-132843621D02*
X171411000Y-132843621D01*
X172315000Y-131683621D02*
X170459000Y-131683621D01*
X174520000Y-133283621D02*
X172190000Y-133283621D01*
X172315000Y-131283621D02*
X170294000Y-131283621D01*
X175735000Y-132443621D02*
X174395000Y-132443621D01*
X172315000Y-131603621D02*
X170421000Y-131603621D01*
X176388000Y-131363621D02*
X174395000Y-131363621D01*
X174617000Y-133243621D02*
X172093000Y-133243621D01*
X176522000Y-130882621D02*
X174395000Y-130882621D01*
X175492000Y-132683621D02*
X171218000Y-132683621D01*
X172315000Y-130882621D02*
X170188000Y-130882621D01*
X176496000Y-131003621D02*
X174395000Y-131003621D01*
X172315000Y-130722621D02*
X170160000Y-130722621D01*
X172315000Y-132083621D02*
X170691000Y-132083621D01*
X172315000Y-130522621D02*
X170137000Y-130522621D01*
X174705000Y-133203621D02*
X172005000Y-133203621D01*
X175991000Y-132123621D02*
X174395000Y-132123621D01*
X176373000Y-131403621D02*
X174395000Y-131403621D01*
X176625000Y-130242621D02*
G75*
G03*
X176625000Y-130242621I-3270000J0D01*
G01*
%TO.C,D1*%
X108380000Y-102835000D02*
X108780000Y-102835000D01*
X108780000Y-121535000D02*
X108780000Y-98135000D01*
X108780000Y-98135000D02*
X101380000Y-98135000D01*
X101380000Y-121535000D02*
X108780000Y-121535000D01*
X108980000Y-97935000D02*
X108980000Y-99135000D01*
X107680000Y-97935000D02*
X108980000Y-97935000D01*
X104780000Y-102835000D02*
X101380000Y-102835000D01*
X101380000Y-98135000D02*
X101380000Y-121535000D01*
%TO.C,J2*%
X136227500Y-96220000D02*
X136227500Y-96820000D01*
X135427500Y-92870000D02*
X123207500Y-92870000D01*
X135627500Y-96520000D02*
X136227500Y-96220000D01*
X124707500Y-105250000D02*
X124707500Y-92870000D01*
X123207500Y-95520000D02*
X123207500Y-97520000D01*
X124707500Y-95770000D02*
X123207500Y-95520000D01*
X124707500Y-100850000D02*
X123207500Y-100600000D01*
X135427500Y-105250000D02*
X135427500Y-92870000D01*
X123207500Y-92870000D02*
X123207500Y-105250000D01*
X136227500Y-96820000D02*
X135627500Y-96520000D01*
X126507500Y-105250000D02*
X124707500Y-105250000D01*
X124707500Y-97270000D02*
X124707500Y-95770000D01*
X123207500Y-100600000D02*
X123207500Y-102600000D01*
X124707500Y-92870000D02*
X126507500Y-92870000D01*
X123207500Y-102600000D02*
X124707500Y-102350000D01*
X123207500Y-105250000D02*
X135427500Y-105250000D01*
X126507500Y-92870000D02*
X126507500Y-105250000D01*
X124707500Y-102350000D02*
X124707500Y-100850000D01*
X123207500Y-97520000D02*
X124707500Y-97270000D01*
%TO.C,C5*%
X158675000Y-77470199D02*
X158675000Y-77870199D01*
X159310000Y-80741000D02*
X158320000Y-80741000D01*
X156640000Y-80861000D02*
X155720000Y-80861000D01*
X156640000Y-80220000D02*
X155455000Y-80220000D01*
X158831000Y-81341000D02*
X158320000Y-81341000D01*
X159448000Y-80420000D02*
X158320000Y-80420000D01*
X156640000Y-81141000D02*
X155928000Y-81141000D01*
X156640000Y-80020000D02*
X155418000Y-80020000D01*
X159551000Y-79940000D02*
X158320000Y-79940000D01*
X159265000Y-80821000D02*
X158320000Y-80821000D01*
X159369000Y-80621000D02*
X158320000Y-80621000D01*
X159160000Y-80981000D02*
X158320000Y-80981000D01*
X159542000Y-80020000D02*
X158320000Y-80020000D01*
X159350000Y-80661000D02*
X158320000Y-80661000D01*
X158248000Y-81701000D02*
X156712000Y-81701000D01*
X156640000Y-81341000D02*
X156129000Y-81341000D01*
X156640000Y-80821000D02*
X155695000Y-80821000D01*
X156640000Y-80701000D02*
X155629000Y-80701000D01*
X159067000Y-81101000D02*
X158320000Y-81101000D01*
X159559000Y-79820000D02*
X155401000Y-79820000D01*
X158560000Y-81541000D02*
X158320000Y-81541000D01*
X156640000Y-80581000D02*
X155573000Y-80581000D01*
X156640000Y-80941000D02*
X155772000Y-80941000D01*
X156640000Y-80901000D02*
X155745000Y-80901000D01*
X159240000Y-80861000D02*
X158320000Y-80861000D01*
X159560000Y-79740000D02*
X155400000Y-79740000D01*
X159514000Y-80180000D02*
X158320000Y-80180000D01*
X158958000Y-81221000D02*
X158320000Y-81221000D01*
X156640000Y-80100000D02*
X155430000Y-80100000D01*
X159130000Y-81021000D02*
X158320000Y-81021000D01*
X156640000Y-81421000D02*
X156226000Y-81421000D01*
X159505000Y-80220000D02*
X158320000Y-80220000D01*
X158622000Y-81501000D02*
X158320000Y-81501000D01*
X156640000Y-81541000D02*
X156400000Y-81541000D01*
X158680000Y-81461000D02*
X158320000Y-81461000D01*
X158493000Y-81581000D02*
X156467000Y-81581000D01*
X156640000Y-80541000D02*
X155556000Y-80541000D01*
X156640000Y-79980000D02*
X155413000Y-79980000D01*
X158876000Y-81301000D02*
X158320000Y-81301000D01*
X156640000Y-80180000D02*
X155446000Y-80180000D01*
X159485000Y-80300000D02*
X158320000Y-80300000D01*
X159188000Y-80941000D02*
X158320000Y-80941000D01*
X156640000Y-80420000D02*
X155512000Y-80420000D01*
X159462000Y-80380000D02*
X158320000Y-80380000D01*
X156640000Y-81461000D02*
X156280000Y-81461000D01*
X159554000Y-79900000D02*
X155406000Y-79900000D01*
X159557000Y-79860000D02*
X155403000Y-79860000D01*
X156640000Y-81101000D02*
X155893000Y-81101000D01*
X159420000Y-80501000D02*
X158320000Y-80501000D01*
X156640000Y-81181000D02*
X155964000Y-81181000D01*
X156640000Y-81221000D02*
X156002000Y-81221000D01*
X156640000Y-80981000D02*
X155800000Y-80981000D01*
X158918000Y-81261000D02*
X158320000Y-81261000D01*
X159215000Y-80901000D02*
X158320000Y-80901000D01*
X159434000Y-80461000D02*
X158320000Y-80461000D01*
X156640000Y-80060000D02*
X155424000Y-80060000D01*
X159387000Y-80581000D02*
X158320000Y-80581000D01*
X156640000Y-80501000D02*
X155540000Y-80501000D01*
X159032000Y-81141000D02*
X158320000Y-81141000D01*
X156640000Y-80461000D02*
X155526000Y-80461000D01*
X156640000Y-81021000D02*
X155830000Y-81021000D01*
X156640000Y-80741000D02*
X155650000Y-80741000D01*
X158996000Y-81181000D02*
X158320000Y-81181000D01*
X156640000Y-80140000D02*
X155438000Y-80140000D01*
X157850000Y-81821000D02*
X157110000Y-81821000D01*
X156640000Y-80260000D02*
X155464000Y-80260000D01*
X159536000Y-80060000D02*
X158320000Y-80060000D01*
X159288000Y-80781000D02*
X158320000Y-80781000D01*
X158339000Y-81661000D02*
X156621000Y-81661000D01*
X156640000Y-80621000D02*
X155591000Y-80621000D01*
X158144000Y-81741000D02*
X156816000Y-81741000D01*
X156640000Y-80781000D02*
X155672000Y-80781000D01*
X158875000Y-77670199D02*
X158475000Y-77670199D01*
X156640000Y-81261000D02*
X156042000Y-81261000D01*
X156640000Y-81501000D02*
X156338000Y-81501000D01*
X156640000Y-81061000D02*
X155861000Y-81061000D01*
X156640000Y-81381000D02*
X156176000Y-81381000D01*
X158784000Y-81381000D02*
X158320000Y-81381000D01*
X156640000Y-79940000D02*
X155409000Y-79940000D01*
X158017000Y-81781000D02*
X156943000Y-81781000D01*
X158734000Y-81421000D02*
X158320000Y-81421000D01*
X156640000Y-80300000D02*
X155475000Y-80300000D01*
X158420000Y-81621000D02*
X156540000Y-81621000D01*
X159522000Y-80140000D02*
X158320000Y-80140000D01*
X159474000Y-80340000D02*
X158320000Y-80340000D01*
X159530000Y-80100000D02*
X158320000Y-80100000D01*
X156640000Y-80661000D02*
X155610000Y-80661000D01*
X159560000Y-79780000D02*
X155400000Y-79780000D01*
X159331000Y-80701000D02*
X158320000Y-80701000D01*
X159099000Y-81061000D02*
X158320000Y-81061000D01*
X159496000Y-80260000D02*
X158320000Y-80260000D01*
X159547000Y-79980000D02*
X158320000Y-79980000D01*
X159404000Y-80541000D02*
X158320000Y-80541000D01*
X156640000Y-81301000D02*
X156084000Y-81301000D01*
X156640000Y-80380000D02*
X155498000Y-80380000D01*
X156640000Y-80340000D02*
X155486000Y-80340000D01*
X159600000Y-79740000D02*
G75*
G03*
X159600000Y-79740000I-2120000J0D01*
G01*
%TD*%
M02*
