M48
; DRILL file {KiCad (6.0.7)} date Thu Sep 22 15:33:35 2022
; FORMAT={-:-/ absolute / inch / decimal}
; #@! TF.CreationDate,2022-09-22T15:33:35-05:00
; #@! TF.GenerationSoftware,Kicad,Pcbnew,(6.0.7)
; #@! TF.FileFunction,Plated,1,2,PTH
FMAT,2
INCH
; #@! TA.AperFunction,Plated,PTH,ComponentDrill
T1C0.0236
; #@! TA.AperFunction,Plated,PTH,ComponentDrill
T2C0.0315
; #@! TA.AperFunction,Plated,PTH,ComponentDrill
T3C0.0394
; #@! TA.AperFunction,Plated,PTH,ComponentDrill
T4C0.0433
; #@! TA.AperFunction,Plated,PTH,ComponentDrill
T5C0.0551
%
G90
G05
T1
X4.3Y-3.1
X4.3Y-3.1787
X4.3Y-5.3
X4.3Y-5.3787
X6.2Y-3.1
X6.2Y-3.1787
X6.4Y-5.4
X6.4Y-5.4787
T2
X5.5Y-2.9
X5.5Y-3.4
X5.8Y-4.75
X5.8Y-5.25
X6.675Y-3.025
X6.675Y-3.1234
X6.825Y-5.0784
X6.825Y-5.1769
T3
X3.8Y-3.1
X3.8Y-3.2969
X3.8Y-5.2031
X3.8Y-5.4
T4
X5.1Y-2.9
X5.1Y-3.0
X5.1Y-3.1
X5.1Y-5.3
X5.1Y-5.4
X5.1Y-5.5
T5
X3.6237Y-4.1281
X3.6237Y-4.325
X3.6237Y-4.5219
X4.2Y-4.025
X4.2Y-4.225
X4.2Y-4.425
X4.2Y-4.625
X5.2487Y-3.8
X5.2487Y-4.0
X5.2487Y-4.5
X5.2487Y-4.7
X6.6513Y-3.9297
X6.6513Y-4.1266
X6.6513Y-4.3234
X6.6513Y-4.5203
T0
M30
